<svg width="28" height="20" viewBox="0 0 28 20" fill="none" xmlns="http://www.w3.org/2000/svg">
<path d="M1.7 0H0V19.4H1.7V0Z" fill="#7B5EFF"/>
<path d="M4.898 0H3.198V19.4H4.898V0Z" fill="#7B5EFF"/>
<path d="M8.09478 0H6.39478V11.604H8.09478V0Z" fill="#7B5EFF"/>
<path d="M11.2928 0H9.5918V11.604H11.2928V0Z" fill="#7B5EFF"/>
<path d="M14.4898 0H12.7888V11.604H14.4898V0Z" fill="#7B5EFF"/>
<path d="M17.6878 0H15.9868V11.604H17.6878V0Z" fill="#7B5EFF"/>
<path d="M20.8848 0H19.1848V11.604H20.8848V0Z" fill="#7B5EFF"/>
<path d="M24.0818 0H22.3818V19.4H24.0818V0Z" fill="#7B5EFF"/>
<path d="M27.2789 0H25.5789V19.4H27.2789V0Z" fill="#7B5EFF"/>
<path d="M20.4748 13.304H6.80478C6.57778 13.304 6.39478 13.488 6.39478 13.714V17.29C6.39478 17.517 6.57878 17.7 6.80478 17.7H20.4748C20.7018 17.7 20.8848 17.516 20.8848 17.29V13.714C20.8848 13.487 20.7018 13.304 20.4748 13.304Z" fill="#7B5EFF"/>
</svg>
