<svg width="24" height="24" viewBox="0 0 24 24" fill="none" xmlns="http://www.w3.org/2000/svg">
<path fill-rule="evenodd" clip-rule="evenodd" d="M3 3.78125C3 2.7975 3.7975 2 4.78125 2H8.34375C8.67167 2 8.9375 2.26583 8.9375 2.59375C8.9375 2.92167 8.67167 3.1875 8.34375 3.1875H4.78125C4.45333 3.1875 4.1875 3.45333 4.1875 3.78125V7.34375C4.1875 7.67167 3.92167 7.9375 3.59375 7.9375C3.26583 7.9375 3 7.67167 3 7.34375V3.78125ZM3 19.2188C3 20.2025 3.7975 21 4.78125 21H8.34375C8.67167 21 8.9375 20.7342 8.9375 20.4062C8.9375 20.0783 8.67167 19.8125 8.34375 19.8125H4.78125C4.45333 19.8125 4.1875 19.5467 4.1875 19.2188V15.6562C4.1875 15.3283 3.92167 15.0625 3.59375 15.0625C3.26583 15.0625 3 15.3283 3 15.6562V19.2188ZM3.59375 10.9062C3.26583 10.9062 3 11.1721 3 11.5C3 11.8279 3.26583 12.0938 3.59375 12.0938H21.4062C21.7342 12.0938 22 11.8279 22 11.5C22 11.1721 21.7342 10.9062 21.4062 10.9062H3.59375ZM22 3.78125C22 2.7975 21.2025 2 20.2188 2H16.6562C16.3283 2 16.0625 2.26583 16.0625 2.59375C16.0625 2.92167 16.3283 3.1875 16.6562 3.1875H20.2188C20.5467 3.1875 20.8125 3.45333 20.8125 3.78125V7.34375C20.8125 7.67167 21.0783 7.9375 21.4062 7.9375C21.7342 7.9375 22 7.67167 22 7.34375V3.78125ZM20.2188 21C21.2025 21 22 20.2025 22 19.2188V15.6562C22 15.3283 21.7342 15.0625 21.4062 15.0625C21.0783 15.0625 20.8125 15.3283 20.8125 15.6562V19.2188C20.8125 19.5467 20.5467 19.8125 20.2188 19.8125H16.6562C16.3283 19.8125 16.0625 20.0783 16.0625 20.4062C16.0625 20.7342 16.3283 21 16.6562 21H20.2188Z" fill="black" stroke="black" stroke-width="0.4"/>
</svg>
