<svg width="24" height="24" viewBox="0 0 24 24" fill="none" xmlns="http://www.w3.org/2000/svg">
<path d="M14.3103 21.3058L8.64509 18.0513H6.25446C4.44643 18.0513 3 16.5848 3 14.7969V9.23214C3 7.4442 4.44643 5.97768 6.25446 5.97768H8.30357L14.1496 2.10045L14.2902 2H14.471C15.5156 2 16.3795 2.86384 16.3795 3.90848V19.3772C16.3795 20.442 15.5156 21.2857 14.471 21.2857H14.3103V21.3058ZM4.14509 9.23214V14.7969C4.14509 15.942 5.08929 16.8862 6.23438 16.8862H8.94643L14.5915 20.1205C14.9531 20.0603 15.2143 19.7388 15.2143 19.3772V3.90848C15.2143 3.54688 14.9531 3.24554 14.6116 3.16518L8.64509 7.14286H6.25446C5.08929 7.14286 4.16518 8.08705 4.14509 9.23214ZM17.846 8.5692V7.66518L18.6696 8.06696C20.0357 8.72991 21 10.1161 21 11.7433C21 13.3705 20.0357 14.7768 18.6696 15.4196L17.846 15.8214V8.5692ZM19.0112 13.7924C19.5335 13.2701 19.8549 12.5469 19.8549 11.7433C19.8549 10.9397 19.5335 10.2165 19.0112 9.6942V13.7924Z" fill="black" stroke="black" stroke-width="0.3"/>
</svg>
