<svg width="50" height="50" viewBox="0 0 50 50" fill="none" xmlns="http://www.w3.org/2000/svg">
<path d="M40.6384 10.7503H39.0738C37.653 10.7503 36.3402 9.9866 35.6388 8.7489C34.3192 6.43757 31.8554 5 29.1916 5H20.847C18.1876 5 15.7193 6.43757 14.4067 8.7489C13.7053 9.9843 12.3925 10.7503 10.9717 10.7503H9.40711C5.32022 10.7503 2 14.0679 2 18.1446V37.8572C2 41.934 5.32028 45.2515 9.40021 45.2515H40.6383C44.7184 45.2515 48.0385 41.9338 48.0385 37.8572V18.1446C48.0385 14.0678 44.7183 10.7503 40.6384 10.7503ZM44.5859 37.8577C44.5859 40.032 42.8145 41.8021 40.6384 41.8021H9.40032C7.22428 41.8021 5.45282 40.0321 5.45282 37.8577V18.1452C5.45282 15.9709 7.22423 14.2008 9.40032 14.2008H10.965C13.6243 14.2008 16.0927 12.7632 17.4052 10.4519C18.1067 9.21652 19.4195 8.45052 20.8402 8.45052H29.1917C30.6125 8.45052 31.9253 9.21422 32.6267 10.4519C33.9395 12.7632 36.4078 14.2008 39.067 14.2008H40.6316C42.8077 14.2008 44.5791 15.9708 44.5791 18.1452V37.8577H44.5859Z" fill="black"/>
<path d="M25.0189 15.3503C18.3558 15.3503 12.9336 20.7682 12.9336 27.426C12.9336 34.0837 18.3558 39.5016 25.0189 39.5016C31.6819 39.5016 37.1041 34.0837 37.1041 27.426C37.1041 20.7682 31.6819 15.3503 25.0189 15.3503ZM25.0189 36.0514C20.2598 36.0514 16.3865 32.1812 16.3865 27.426C16.3865 22.6707 20.2598 18.8005 25.0189 18.8005C29.7779 18.8005 33.6512 22.6707 33.6512 27.426C33.6512 32.1812 29.7779 36.0514 25.0189 36.0514Z" fill="black"/>
</svg>
