<svg width="19" height="19" viewBox="0 0 19 19" fill="none" xmlns="http://www.w3.org/2000/svg">
<path d="M17.4167 14.7778C17.4167 15.1977 17.2499 15.6004 16.953 15.8973C16.656 16.1943 16.2533 16.3611 15.8334 16.3611H3.16671C2.74678 16.3611 2.34405 16.1943 2.04712 15.8973C1.75019 15.6004 1.58337 15.1977 1.58337 14.7778V3.69442C1.58337 3.27449 1.75019 2.87176 2.04712 2.57483C2.34405 2.2779 2.74678 2.11108 3.16671 2.11108H7.12504L8.70837 4.48608H15.8334C16.2533 4.48608 16.656 4.6529 16.953 4.94983C17.2499 5.24676 17.4167 5.64949 17.4167 6.06942V14.7778Z" stroke="black" stroke-width="1.2" stroke-linecap="round" stroke-linejoin="round"/>
<path d="M9.5 8.70825V13.4583" stroke="black" stroke-width="1.2" stroke-linecap="round" stroke-linejoin="round"/>
<path d="M7.125 11.0833H11.875" stroke="black" stroke-width="1.2" stroke-linecap="round" stroke-linejoin="round"/>
</svg>
