<svg width="16" height="16" viewBox="0 0 16 16" fill="none" xmlns="http://www.w3.org/2000/svg">
<path d="M3.14286 6.28571C3.61084 6.28609 4.07284 6.1806 4.49429 5.97714L4.67714 5.88857L10.1057 11.3171L10.0171 11.5C9.81482 11.9236 9.71127 12.3877 9.71428 12.8571C9.71428 13.4787 9.89861 14.0864 10.244 14.6032C10.5893 15.1201 11.0801 15.5229 11.6544 15.7608C12.2287 15.9986 12.8606 16.0609 13.4703 15.9396C14.0799 15.8183 14.6399 15.519 15.0795 15.0795C15.519 14.6399 15.8183 14.0799 15.9396 13.4703C16.0609 12.8606 15.9986 12.2287 15.7608 11.6544C15.5229 11.0801 15.1201 10.5893 14.6032 10.244C14.0864 9.89861 13.4787 9.71428 12.8571 9.71428C12.3892 9.71391 11.9272 9.8194 11.5057 10.0229L11.3229 10.1114L5.89429 4.68286L5.98286 4.5C6.18518 4.07636 6.28873 3.61232 6.28571 3.14286C6.28571 2.52126 6.10139 1.91362 5.75605 1.39678C5.41071 0.87994 4.91986 0.477113 4.34558 0.239237C3.7713 0.00136176 3.13937 -0.0608773 2.52972 0.0603905C1.92006 0.181658 1.36006 0.480986 0.920522 0.920522C0.480986 1.36006 0.181658 1.92006 0.0603905 2.52972C-0.0608773 3.13937 0.00136176 3.7713 0.239237 4.34558C0.477113 4.91986 0.87994 5.41071 1.39678 5.75605C1.91362 6.10139 2.52126 6.28571 3.14286 6.28571ZM12.8571 11.4286C13.1397 11.4286 13.4159 11.5124 13.6508 11.6693C13.8857 11.8263 14.0688 12.0494 14.177 12.3105C14.2851 12.5715 14.3134 12.8587 14.2583 13.1358C14.2031 13.413 14.0671 13.6675 13.8673 13.8673C13.6675 14.0671 13.413 14.2031 13.1358 14.2583C12.8587 14.3134 12.5715 14.2851 12.3105 14.177C12.0494 14.0688 11.8263 13.8857 11.6693 13.6508C11.5124 13.4159 11.4286 13.1397 11.4286 12.8571C11.4286 12.4783 11.5791 12.1149 11.847 11.847C12.1149 11.5791 12.4783 11.4286 12.8571 11.4286ZM3.14286 1.71429C3.4254 1.71429 3.7016 1.79807 3.93653 1.95504C4.17146 2.11202 4.35456 2.33513 4.46269 2.59617C4.57081 2.8572 4.5991 3.14444 4.54398 3.42156C4.48886 3.69867 4.3528 3.95322 4.15301 4.15301C3.95322 4.3528 3.69867 4.48886 3.42156 4.54398C3.14444 4.5991 2.8572 4.57081 2.59617 4.46269C2.33513 4.35456 2.11202 4.17146 1.95504 3.93653C1.79807 3.7016 1.71429 3.4254 1.71429 3.14286C1.71429 2.76398 1.8648 2.40061 2.13271 2.13271C2.40061 1.8648 2.76398 1.71429 3.14286 1.71429Z" fill="#BEBEBE"/>
<path d="M9.7142 2.00005H12.5713C12.9502 2.00005 13.3136 2.15056 13.5815 2.41847C13.8494 2.68638 13.9999 3.04974 13.9999 3.42862V6.28577C13.9999 6.51309 14.0902 6.73111 14.251 6.89186C14.4117 7.0526 14.6297 7.14291 14.8571 7.14291C15.0844 7.14291 15.3024 7.0526 15.4631 6.89186C15.6239 6.73111 15.7142 6.51309 15.7142 6.28577V3.42862C15.7142 2.59509 15.3831 1.79569 14.7937 1.20629C14.2043 0.616888 13.4049 0.285767 12.5713 0.285767H9.7142C9.48687 0.285767 9.26885 0.376072 9.10811 0.536818C8.94736 0.697563 8.85706 0.915581 8.85706 1.14291C8.85706 1.37024 8.94736 1.58826 9.10811 1.749C9.26885 1.90975 9.48687 2.00005 9.7142 2.00005Z" fill="#BEBEBE"/>
<path d="M1.14291 8.85706C0.915581 8.85706 0.697563 8.94736 0.536818 9.10811C0.376072 9.26885 0.285767 9.48687 0.285767 9.7142V12.5713C0.285767 13.4049 0.616888 14.2043 1.20629 14.7937C1.79569 15.3831 2.59509 15.7142 3.42862 15.7142H6.28577C6.51309 15.7142 6.73111 15.6239 6.89186 15.4631C7.0526 15.3024 7.14291 15.0844 7.14291 14.8571C7.14291 14.6297 7.0526 14.4117 6.89186 14.251C6.73111 14.0902 6.51309 13.9999 6.28577 13.9999H3.42862C3.04974 13.9999 2.68638 13.8494 2.41847 13.5815C2.15056 13.3136 2.00005 12.9502 2.00005 12.5713V9.7142C2.00005 9.48687 1.90975 9.26885 1.749 9.10811C1.58826 8.94736 1.37024 8.85706 1.14291 8.85706Z" fill="#BEBEBE"/>
</svg>
