<svg width="24" height="26" viewBox="0 0 24 26" fill="none" xmlns="http://www.w3.org/2000/svg">
<path fill-rule="evenodd" clip-rule="evenodd" d="M4.44767 1.77907C2.97385 1.77907 1.77907 2.97385 1.77907 4.44767V21.0523C1.77907 22.5261 2.97385 23.7209 4.44767 23.7209H18.6802C20.154 23.7209 21.3488 22.5261 21.3488 21.0523V9.29404C21.3488 8.66975 21.13 8.06522 20.7303 7.58564L16.6917 2.73928C16.1847 2.13085 15.4335 1.77907 14.6416 1.77907H4.44767ZM0 4.44767C0 1.99129 1.99129 0 4.44767 0H14.6416C15.9616 0 17.2133 0.58631 18.0584 1.60034L22.097 6.44671C22.7631 7.24602 23.1279 8.25357 23.1279 9.29404V21.0523C23.1279 23.5087 21.1367 25.5 18.6802 25.5H4.44767C1.99129 25.5 0 23.5087 0 21.0523V4.44767Z" fill="#FDAB35"/>
<path fill-rule="evenodd" clip-rule="evenodd" d="M15.1221 0.593018C15.6134 0.593018 16.0116 0.99128 16.0116 1.48255V5.63372C16.0116 7.10754 17.2065 8.30232 18.6802 8.30232H21.6453C22.1366 8.30232 22.5349 8.70058 22.5349 9.19185C22.5349 9.68313 22.1366 10.0814 21.6453 10.0814H18.6802C16.2238 10.0814 14.2326 8.0901 14.2326 5.63372V1.48255C14.2326 0.99128 14.6308 0.593018 15.1221 0.593018Z" fill="#FDAB35"/>
<path fill-rule="evenodd" clip-rule="evenodd" d="M5.93024 15.1221C5.93024 14.6308 6.3285 14.2326 6.81977 14.2326H16.3081C16.7994 14.2326 17.1977 14.6308 17.1977 15.1221C17.1977 15.6134 16.7994 16.0116 16.3081 16.0116H6.81977C6.3285 16.0116 5.93024 15.6134 5.93024 15.1221Z" fill="#FDAB35"/>
<path fill-rule="evenodd" clip-rule="evenodd" d="M5.93024 10.3779C5.93024 9.88664 6.3285 9.48837 6.81977 9.48837H12.75C13.2413 9.48837 13.6395 9.88664 13.6395 10.3779C13.6395 10.8692 13.2413 11.2674 12.75 11.2674H6.81977C6.3285 11.2674 5.93024 10.8692 5.93024 10.3779Z" fill="#FDAB35"/>
<path fill-rule="evenodd" clip-rule="evenodd" d="M5.93024 19.8663C5.93024 19.375 6.3285 18.9767 6.81977 18.9767H16.3081C16.7994 18.9767 17.1977 19.375 17.1977 19.8663C17.1977 20.3575 16.7994 20.7558 16.3081 20.7558H6.81977C6.3285 20.7558 5.93024 20.3575 5.93024 19.8663Z" fill="#FDAB35"/>
</svg>
