<svg width="20" height="20" viewBox="0 0 20 20" fill="none" xmlns="http://www.w3.org/2000/svg">
<path d="M9.84025 6.1726L9.87759 6.20586L9.84025 6.1726C9.61877 6.42126 9.48666 6.74197 9.47246 7.07849L9.52242 7.0806L9.47246 7.07849L9.35048 9.97265C9.34281 10.1544 9.41164 10.331 9.54028 10.4596C9.66892 10.5883 9.84555 10.6571 10.0273 10.6494L12.9203 10.5274C13.2561 10.5132 13.5763 10.3816 13.8248 10.1611C16.2095 8.04587 16.7898 7.51881 18.3045 5.83341C19.3456 4.67499 19.2857 2.90607 18.1903 1.81015C17.0924 0.711697 15.3196 0.654402 14.162 1.7012C12.4761 3.22576 11.9513 3.80257 9.84025 6.1726ZM15.0339 2.66543C15.672 2.08838 16.6572 2.11524 17.2708 2.72915C17.8834 3.34203 17.9116 4.32584 17.3376 4.96443C16.035 6.41386 15.4664 6.96061 13.6875 8.54434C13.281 7.54858 12.4802 6.71314 11.5055 6.25864C13.0471 4.53484 13.5975 3.96436 15.0339 2.66543ZM10.762 7.35506C11.5939 7.66885 12.2904 8.39546 12.5585 9.24148L10.6791 9.32077L10.762 7.35506Z" fill="#BEBEBE" stroke="#BEBEBE" stroke-width="0.1"/>
<path d="M2.4843 5.30636C2.64817 3.56593 4.1487 2.25 5.93344 2.25H9.98431C10.3433 2.25 10.6343 1.95898 10.6343 1.6C10.6343 1.24102 10.3433 0.95 9.98431 0.95H5.93344C3.51496 0.95 1.42018 2.73999 1.19003 5.18449C0.869128 8.59289 0.870254 11.3896 1.19184 14.8113C1.4217 17.2572 3.51673 19.05 5.93725 19.05H14.0534C16.4625 19.05 18.553 17.2744 18.7934 14.8397C19.0018 12.7295 19.0836 10.8566 19.0376 8.93443C19.0289 8.57557 18.7311 8.29158 18.3722 8.3002C18.0133 8.30878 17.7293 8.60667 17.7379 8.96557C17.7825 10.827 17.7037 12.6462 17.4997 14.7119C17.3286 16.4445 15.8318 17.75 14.0534 17.75H5.93725C4.15128 17.75 2.64988 16.4321 2.48613 14.6897C2.17211 11.3484 2.17108 8.63319 2.4843 5.30636Z" fill="#BEBEBE" stroke="#BEBEBE" stroke-width="0.1"/>
</svg>
