<svg width="17" height="17" viewBox="0 0 17 17" fill="none" xmlns="http://www.w3.org/2000/svg">
<path d="M3.95349 17H13.0465C15.2209 17 17 15.2209 17 13.0465V10.4767C17 10.1143 16.7035 9.81783 16.3411 9.81783C15.9787 9.81783 15.6822 10.1143 15.6822 10.4767V13.0465C15.6822 14.4961 14.4961 15.6822 13.0465 15.6822H3.95349C2.50388 15.6822 1.31783 14.4961 1.31783 13.0465V3.95349C1.31783 2.50388 2.50388 1.31783 3.95349 1.31783H6.52326C6.88566 1.31783 7.18217 1.02132 7.18217 0.658915C7.18217 0.296512 6.88566 0 6.52326 0H3.95349C1.77907 0 0 1.77907 0 3.95349V13.0465C0 15.2209 1.77907 17 3.95349 17Z" fill="black"/>
<path d="M12.8489 0.856594L6.12795 7.57753C6.06205 7.64342 5.99616 7.74225 5.96322 7.87404L5.04074 11.1686C4.9419 11.531 5.13957 11.8934 5.50198 11.9923C5.60081 12.0252 5.7326 12.0252 5.86438 11.9923L9.15895 11.0698C9.25779 11.0368 9.35663 10.9709 9.45547 10.905L16.2093 4.18411C17.1318 3.26163 17.1318 1.77907 16.2093 0.856594C15.2869 -0.0658863 13.7384 -0.0658863 12.8489 0.856594ZM6.58919 10.4109L6.91864 9.2907L7.74229 10.1143L6.58919 10.4109ZM15.221 3.22869L8.99423 9.45543L7.54461 8.00582L13.7714 1.77908C14.1997 1.41667 14.8586 1.44962 15.221 1.87791C15.5504 2.27326 15.5504 2.83334 15.221 3.22869Z" fill="black"/>
</svg>
