<svg width="18" height="18" viewBox="0 0 18 18" fill="none" xmlns="http://www.w3.org/2000/svg">
<path d="M3.34207 17.0109H13.0644C13.9508 17.0109 14.8009 16.6588 15.4276 16.032C16.0544 15.4053 16.4065 14.5552 16.4065 13.6688V9.41527C16.4065 9.17354 16.3105 8.9417 16.1395 8.77077C15.9686 8.59983 15.7368 8.5038 15.495 8.5038C15.2533 8.5038 15.0215 8.59983 14.8505 8.77077C14.6796 8.9417 14.5836 9.17354 14.5836 9.41527V13.6688C14.5836 14.0717 14.4235 14.4581 14.1386 14.743C13.8537 15.0279 13.4673 15.1879 13.0644 15.1879H3.34207C2.93917 15.1879 2.55278 15.0279 2.26789 14.743C1.983 14.4581 1.82295 14.0717 1.82295 13.6688V3.94644C1.82295 3.54354 1.983 3.15715 2.26789 2.87226C2.55278 2.58737 2.93917 2.42732 3.34207 2.42732H7.89943C8.14117 2.42732 8.37301 2.33129 8.54394 2.16035C8.71487 1.98942 8.8109 1.75758 8.8109 1.51584C8.8109 1.27411 8.71487 1.04227 8.54394 0.871334C8.37301 0.7004 8.14117 0.60437 7.89943 0.60437H3.34207C2.4557 0.60437 1.60563 0.95648 0.978869 1.58324C0.352109 2.21 0 3.06007 0 3.94644V13.6688C0 14.5552 0.352109 15.4053 0.978869 16.032C1.60563 16.6588 2.4557 17.0109 3.34207 17.0109Z" fill="#BEBEBE"/>
<path d="M12.3534 2.75237L13.6234 3.38736L14.2584 4.65735C14.2884 4.7175 14.3346 4.76811 14.3917 4.80348C14.4489 4.83885 14.5148 4.85759 14.582 4.85759C14.6492 4.85759 14.7151 4.83885 14.7723 4.80348C14.8294 4.76811 14.8756 4.7175 14.9056 4.65735L15.5406 3.38736L16.8105 2.75237C16.8707 2.72238 16.9213 2.67621 16.9567 2.61906C16.9921 2.5619 17.0108 2.49601 17.0108 2.4288C17.0108 2.36158 16.9921 2.29569 16.9567 2.23853C16.9213 2.18138 16.8707 2.13521 16.8105 2.10522L15.5406 1.47023L14.9056 0.200245C14.8756 0.140088 14.8294 0.0894823 14.7723 0.0541101C14.7151 0.0187379 14.6492 0 14.582 0C14.5148 0 14.4489 0.0187379 14.3917 0.0541101C14.3346 0.0894823 14.2884 0.140088 14.2584 0.200245L13.6234 1.47023L12.3534 2.10522C12.2933 2.13521 12.2427 2.18138 12.2073 2.23853C12.1719 2.29569 12.1532 2.36158 12.1532 2.4288C12.1532 2.49601 12.1719 2.5619 12.2073 2.61906C12.2427 2.67621 12.2933 2.72238 12.3534 2.75237Z" fill="#BEBEBE"/>
<path d="M8.93539 7.22161L9.7223 7.60747L10.1082 8.37918C10.1298 8.42271 10.1632 8.45934 10.2045 8.48494C10.2458 8.51054 10.2935 8.5241 10.3421 8.5241C10.3907 8.5241 10.4384 8.51054 10.4797 8.48494C10.521 8.45934 10.5544 8.42271 10.576 8.37918L10.9376 7.60747L11.7093 7.22161C11.7528 7.19996 11.7895 7.16659 11.8151 7.12526C11.8407 7.08394 11.8542 7.03628 11.8542 6.98767C11.8542 6.93905 11.8407 6.8914 11.8151 6.85007C11.7895 6.80874 11.7528 6.77538 11.7093 6.75372L10.9376 6.37698L10.5517 5.60527C10.5274 5.56502 10.4931 5.53173 10.4521 5.50863C10.4111 5.48553 10.3648 5.47339 10.3178 5.47339C10.2707 5.47339 10.2245 5.48553 10.1835 5.50863C10.1425 5.53173 10.1082 5.56502 10.0838 5.60527L9.7223 6.37698L8.95058 6.76284C8.90706 6.78449 8.87043 6.81786 8.84483 6.85918C8.81923 6.90051 8.80566 6.94817 8.80566 6.99678C8.80566 7.0454 8.81923 7.09305 8.84483 7.13438C8.87043 7.17571 8.90706 7.20908 8.95058 7.23073L8.93539 7.22161Z" fill="#BEBEBE"/>
</svg>
