<svg width="32" height="28" viewBox="0 0 32 28" fill="none" xmlns="http://www.w3.org/2000/svg">
<path fill-rule="evenodd" clip-rule="evenodd" d="M9.26478 2.3374C9.68163 1.71206 10.2464 1.19931 10.909 0.844655C11.5716 0.489998 12.3115 0.304406 13.063 0.304352H18.937C19.6885 0.304406 20.4284 0.489998 21.091 0.844655C21.7536 1.19931 22.3184 1.71206 22.7352 2.3374L23.9709 4.19239C24.1099 4.40075 24.2982 4.57156 24.519 4.68969C24.7399 4.80782 24.9865 4.86961 25.237 4.86957H26.6522C27.8629 4.86957 29.0241 5.35055 29.8803 6.20669C30.7364 7.06283 31.2174 8.22402 31.2174 9.43479V23.1304C31.2174 24.3412 30.7364 25.5024 29.8803 26.3585C29.0241 27.2147 27.8629 27.6957 26.6522 27.6957H5.34783C4.13705 27.6957 2.97587 27.2147 2.11973 26.3585C1.26359 25.5024 0.782608 24.3412 0.782608 23.1304V9.43479C0.782608 8.22402 1.26359 7.06283 2.11973 6.20669C2.97587 5.35055 4.13705 4.86957 5.34783 4.86957H6.76304C7.01351 4.86961 7.26011 4.80782 7.48097 4.68969C7.70183 4.57156 7.89012 4.40075 8.02913 4.19239L9.26478 2.3374ZM12.9565 15.5217C12.9565 14.7146 13.2772 13.9404 13.8479 13.3697C14.4187 12.7989 15.1928 12.4783 16 12.4783C16.8072 12.4783 17.5813 12.7989 18.1521 13.3697C18.7228 13.9404 19.0435 14.7146 19.0435 15.5217C19.0435 16.3289 18.7228 17.103 18.1521 17.6738C17.5813 18.2446 16.8072 18.5652 16 18.5652C15.1928 18.5652 14.4187 18.2446 13.8479 17.6738C13.2772 17.103 12.9565 16.3289 12.9565 15.5217ZM16 9.43479C14.3856 9.43479 12.8374 10.0761 11.6959 11.2176C10.5543 12.3591 9.91304 13.9074 9.91304 15.5217C9.91304 17.1361 10.5543 18.6843 11.6959 19.8259C12.8374 20.9674 14.3856 21.6087 16 21.6087C17.6144 21.6087 19.1626 20.9674 20.3041 19.8259C21.4457 18.6843 22.087 17.1361 22.087 15.5217C22.087 13.9074 21.4457 12.3591 20.3041 11.2176C19.1626 10.0761 17.6144 9.43479 16 9.43479Z" fill="white"/>
</svg>
