<svg width="50" height="50" viewBox="0 0 50 50" fill="none" xmlns="http://www.w3.org/2000/svg">
<path d="M36.5 2H13.5C7.15883 2 2 7.15857 2 13.5V36.5C2 42.8396 7.15857 48 13.5 48H36.5C42.8412 48 48 42.8394 48 36.5V13.5C48 7.15883 42.8414 2 36.5 2ZM44.7143 36.5C44.7143 41.0302 41.0302 44.7143 36.5 44.7143H13.5C8.96981 44.7143 5.28571 41.0302 5.28571 36.5V29.099L9.94118 25.4313C13.3604 22.7411 18.2974 23.1847 21.1783 26.4458L27.7271 33.8594C28.2611 34.4652 29.1585 34.5945 29.8403 34.1592L32.323 32.5821C35.6231 30.4895 39.9748 31.0193 42.6691 33.8491L44.7124 35.991V36.5023L44.7143 36.5ZM44.7143 31.2839C40.9214 27.606 35.0543 26.9509 30.561 29.8053L29.2611 30.6309L23.6407 24.2687C19.6074 19.7036 12.6953 19.0793 7.90813 22.8476L5.28366 24.9135V13.4997C5.28366 8.96955 8.96776 5.28545 13.4979 5.28545H36.4979C41.0281 5.28545 44.7122 8.96955 44.7122 13.4997V31.2836L44.7143 31.2839Z" fill="black"/>
<path d="M36.3825 8.57129C33.6019 8.57129 31.3389 10.8343 31.3389 13.6149C31.3389 16.3954 33.6019 18.6585 36.3825 18.6585C39.163 18.6585 41.4261 16.3954 41.4261 13.6149C41.4261 10.8343 39.163 8.57129 36.3825 8.57129ZM36.3825 15.373C35.4132 15.373 34.6246 14.5844 34.6246 13.6151C34.6246 12.6458 35.4132 11.8572 36.3825 11.8572C37.3518 11.8572 38.1403 12.6458 38.1403 13.6151C38.1403 14.5844 37.3518 15.373 36.3825 15.373Z" fill="black"/>
</svg>
