<svg width="24" height="24" viewBox="0 0 24 24" fill="none" xmlns="http://www.w3.org/2000/svg">
<path d="M18.144 5.90825C18.144 6.05675 18.085 6.19917 17.98 6.30417C17.875 6.40918 17.7326 6.46817 17.5841 6.46817H6.80746C6.65896 6.46817 6.51655 6.40918 6.41154 6.30417C6.30653 6.19917 6.24754 6.05675 6.24754 5.90825C6.24754 5.75975 6.30653 5.61733 6.41154 5.51233C6.51655 5.40732 6.65896 5.34833 6.80746 5.34833H17.5841C17.7326 5.34833 17.875 5.40732 17.98 5.51233C18.085 5.61733 18.144 5.75975 18.144 5.90825ZM18.144 9.15953C18.144 9.01103 18.085 8.86861 17.98 8.7636C17.875 8.6586 17.7326 8.5996 17.5841 8.5996H6.80746C6.65896 8.5996 6.51655 8.6586 6.41154 8.7636C6.30653 8.86861 6.24754 9.01103 6.24754 9.15953C6.24754 9.30803 6.30653 9.45044 6.41154 9.55545C6.51655 9.66046 6.65896 9.71945 6.80746 9.71945H17.5841C17.7326 9.71945 17.875 9.66046 17.98 9.55545C18.085 9.45044 18.144 9.30803 18.144 9.15953ZM11.3055 12.4145C11.3055 12.266 11.2465 12.1236 11.1415 12.0186C11.0365 11.9136 10.8941 11.8546 10.7456 11.8546H6.80373C6.65523 11.8546 6.51281 11.9136 6.40781 12.0186C6.3028 12.1236 6.24381 12.266 6.24381 12.4145C6.24381 12.563 6.3028 12.7055 6.40781 12.8105C6.51281 12.9155 6.65523 12.9745 6.80373 12.9745H10.7456C10.8941 12.9745 11.0365 12.9155 11.1415 12.8105C11.2465 12.7055 11.3055 12.563 11.3055 12.4145ZM6.80373 15.0984C6.65523 15.0984 6.51281 15.1574 6.40781 15.2624C6.3028 15.3674 6.24381 15.5098 6.24381 15.6583C6.24381 15.8068 6.3028 15.9493 6.40781 16.0543C6.51281 16.1593 6.65523 16.2183 6.80373 16.2183H9.70786C9.85636 16.2183 9.99877 16.1593 10.1038 16.0543C10.2088 15.9493 10.2678 15.8068 10.2678 15.6583C10.2678 15.5098 10.2088 15.3674 10.1038 15.2624C9.99877 15.1574 9.85636 15.0984 9.70786 15.0984H6.80373ZM22 16.3937C22.0019 17.4168 21.6941 18.4165 21.1173 19.2614C20.5404 20.1063 19.7214 20.7569 18.7679 21.1276C17.8143 21.4984 16.7709 21.5719 15.7748 21.3386C14.7787 21.1053 13.8765 20.576 13.1868 19.8204H5.05304C4.50885 19.8194 3.98722 19.6028 3.60241 19.218C3.21761 18.8332 3.00099 18.3116 3 17.7674V4.05304C3.00099 3.50885 3.21761 2.98722 3.60241 2.60241C3.98722 2.21761 4.50885 2.00099 5.05304 2H19.3348C19.8793 2 20.4015 2.2163 20.7865 2.60132C21.1715 2.98634 21.3878 3.50854 21.3878 4.05304V11.1454C21.3878 11.2939 21.3288 11.4363 21.2238 11.5413C21.1188 11.6463 20.9764 11.7053 20.8279 11.7053C20.6794 11.7053 20.537 11.6463 20.432 11.5413C20.327 11.4363 20.268 11.2939 20.268 11.1454V4.05304C20.268 3.80554 20.1696 3.56818 19.9946 3.39317C19.8196 3.21816 19.5823 3.11984 19.3348 3.11984H5.05304C4.80585 3.12083 4.56905 3.21946 4.39426 3.39426C4.21946 3.56905 4.12083 3.80585 4.11984 4.05304V17.7748C4.12083 18.022 4.21946 18.2588 4.39426 18.4336C4.56905 18.6084 4.80585 18.7071 5.05304 18.708H12.4067C12.0376 17.9952 11.8456 17.2039 11.8468 16.4012C11.8468 15.0548 12.3816 13.7635 13.3337 12.8115C14.2857 11.8594 15.577 11.3246 16.9234 11.3246C18.2698 11.3246 19.561 11.8594 20.5131 12.8115C21.4651 13.7635 22 15.0548 22 16.4012V16.3937ZM20.8801 16.3937C20.8801 15.6111 20.6481 14.8461 20.2133 14.1954C19.7785 13.5448 19.1606 13.0376 18.4376 12.7381C17.7146 12.4386 16.919 12.3603 16.1514 12.513C15.3839 12.6656 14.6789 13.0425 14.1255 13.5958C13.5721 14.1492 13.1953 14.8542 13.0426 15.6218C12.89 16.3893 12.9683 17.1849 13.2678 17.9079C13.5673 18.6309 14.0744 19.2489 14.7251 19.6836C15.3758 20.1184 16.1408 20.3505 16.9234 20.3505C17.9709 20.3485 18.975 19.932 19.7164 19.192C20.4578 18.452 20.8762 17.4487 20.8801 16.4012V16.3937ZM16.9234 13.344C16.7749 13.344 16.6325 13.403 16.5274 13.508C16.4224 13.613 16.3635 13.7554 16.3635 13.9039V15.845H14.833C14.6845 15.845 14.5421 15.904 14.4371 16.009C14.3321 16.114 14.2731 16.2564 14.2731 16.4049C14.2731 16.5534 14.3321 16.6958 14.4371 16.8008C14.5421 16.9058 14.6845 16.9648 14.833 16.9648H16.9234C17.0719 16.9648 17.2143 16.9058 17.3193 16.8008C17.4243 16.6958 17.4833 16.5534 17.4833 16.4049C17.4872 16.3639 17.4872 16.3227 17.4833 16.2817C17.4872 16.2395 17.4872 16.197 17.4833 16.1548V13.9151C17.4838 13.8413 17.4697 13.7681 17.4417 13.6997C17.4138 13.6313 17.3727 13.5692 17.3206 13.5168C17.2686 13.4644 17.2067 13.4228 17.1385 13.3944C17.0703 13.3661 16.9972 13.3515 16.9234 13.3515V13.344Z" fill="black"/>
</svg>
