<svg width="24" height="24" viewBox="0 0 24 24" fill="none" xmlns="http://www.w3.org/2000/svg">
<path fill-rule="evenodd" clip-rule="evenodd" d="M15.3571 2.93938C15.3573 2.93946 15.3574 2.93954 15.3575 2.93962L19.3051 5.33269C19.3342 5.35034 19.3624 5.3695 19.3895 5.39011C21.0374 6.64411 22.0037 8.5969 22.0008 10.6677C22.0008 10.668 22.0008 10.6684 22.0008 10.6688L22.0008 16.6501C22.0616 19.5366 19.7754 21.9299 16.8875 21.9997C16.8797 21.9999 16.8719 22 16.8641 22H7.13787C7.133 22 7.12812 22 7.12325 21.9999C7.12032 21.9998 7.11739 21.9998 7.11447 21.9997C4.22655 21.9299 1.94045 19.5366 2.00118 16.6501V10.668C1.99829 8.59711 2.96454 6.64419 4.61252 5.39013C4.63957 5.36954 4.66769 5.35039 4.69676 5.33276L8.64322 2.9396C8.64318 2.93963 8.64327 2.93958 8.64322 2.9396C10.7059 1.68691 13.2945 1.68676 15.3571 2.93938ZM14.3528 4.59383C12.9074 3.71594 11.0934 3.71592 9.64793 4.59385L5.74601 6.96C4.60317 7.84851 3.93444 9.21636 3.93663 10.6658L3.93663 10.6673L3.93663 16.6607C3.93663 16.6682 3.93655 16.6757 3.93637 16.6832C3.89406 18.5035 5.33156 20.0147 7.15031 20.0645H16.8517C18.6705 20.0147 20.108 18.5035 20.0656 16.6832C20.0655 16.6757 20.0654 16.6682 20.0654 16.6607V10.6673V10.6658C20.0676 9.21636 19.3989 7.84855 18.2561 6.96005L14.3528 4.59383Z" fill="#BEBEBE"/>
<path fill-rule="evenodd" clip-rule="evenodd" d="M8.64672 15.3287C9.07661 15.0111 9.68254 15.1022 10.0001 15.5321C10.4691 16.167 11.2117 16.5416 12.001 16.5416C12.7904 16.5416 13.5329 16.167 14.0019 15.5321C14.3195 15.1022 14.9254 15.0111 15.3553 15.3287C15.7852 15.6462 15.8762 16.2522 15.5587 16.6821C14.7247 17.811 13.4046 18.4771 12.001 18.4771C10.5976 18.4771 9.27722 17.811 8.4433 16.682C8.12575 16.2521 8.21682 15.6462 8.64672 15.3287Z" fill="#BEBEBE"/>
</svg>
