<svg width="30" height="20" viewBox="0 0 30 20" fill="none" xmlns="http://www.w3.org/2000/svg">
<path d="M25.7426 0H3.75737C1.67684 0 0 1.67684 0 3.75737V15.8368C0 17.9174 1.67684 19.5942 3.75737 19.5942H25.7426C27.8232 19.5942 29.5 17.9174 29.5 15.8368V3.72632C29.5 1.67684 27.8232 0 25.7426 0ZM28.0095 15.8368C28.0095 17.0789 26.9847 18.1037 25.7426 18.1037H3.75737C2.51526 18.1037 1.49053 17.0789 1.49053 15.8368V3.72632C1.49053 2.48421 2.51526 1.45947 3.75737 1.45947H25.7426C26.9847 1.45947 28.0095 2.48421 28.0095 3.72632V15.8368Z" fill="#A9715E"/>
<path d="M24.5626 4.50262H16.4268C16.0232 4.50262 15.6816 4.8442 15.6816 5.24789C15.6816 5.65157 16.0232 5.99315 16.4268 5.99315H24.5316C24.9353 5.99315 25.2768 5.65157 25.2768 5.24789C25.3079 4.8442 24.9663 4.50262 24.5626 4.50262Z" fill="#A9715E"/>
<path d="M24.5626 9.03632H16.4268C16.0232 9.03632 15.6816 9.3779 15.6816 9.78158C15.6816 10.1853 16.0232 10.5268 16.4268 10.5268H24.5316C24.9353 10.5268 25.2768 10.1853 25.2768 9.78158C25.2768 9.3779 24.9663 9.03632 24.5626 9.03632Z" fill="#A9715E"/>
<path d="M24.5626 13.57H16.4268C16.0232 13.57 15.6816 13.9116 15.6816 14.3153C15.6816 14.7189 16.0232 15.0605 16.4268 15.0605H24.5316C24.9353 15.0605 25.2768 14.7189 25.2768 14.3153C25.2768 13.9116 24.9663 13.57 24.5626 13.57Z" fill="#A9715E"/>
<path d="M10.7132 9.12947C11.2721 8.57052 11.6137 7.82526 11.6137 6.98684C11.6137 5.31 10.2474 3.94368 8.57056 3.94368C6.89371 3.94368 5.5274 5.31 5.5274 6.98684C5.5274 7.82526 5.86898 8.60157 6.42792 9.12947C5.03056 9.96789 4.06792 11.6137 4.06792 13.4768C4.06792 13.9737 4.28529 14.8742 5.71371 15.4642C6.49003 15.7747 7.51477 15.961 8.60161 15.961C10.8685 15.961 13.1353 15.1847 13.1353 13.4768C13.0732 11.6137 12.1106 9.96789 10.7132 9.12947ZM7.01792 6.98684C7.01792 6.11736 7.70108 5.43421 8.57056 5.43421C9.44003 5.43421 10.1232 6.11736 10.1232 6.98684C10.1232 7.85631 9.44003 8.53947 8.57056 8.53947C7.70108 8.53947 7.01792 7.82526 7.01792 6.98684ZM8.57056 14.4705C6.7074 14.4705 5.55845 13.8805 5.55845 13.4768C5.55845 11.5826 6.92477 10.03 8.57056 10.03C10.2474 10.03 11.5827 11.5826 11.5827 13.4768C11.5827 13.8805 10.4337 14.4705 8.57056 14.4705Z" fill="#A9715E"/>
</svg>
