<svg width="204" height="192" viewBox="0 0 204 192" fill="none" xmlns="http://www.w3.org/2000/svg">
<g filter="url(#filter0_f_1_5283)">
<ellipse cx="100.96" cy="154.921" rx="78.8417" ry="15.2096" fill="#1F88F8" fill-opacity="0.35"/>
</g>
<path d="M103.878 173.5C149.033 173.5 185.638 136.894 185.638 91.7395C185.638 46.5847 149.033 9.97949 103.878 9.97949C58.7233 9.97949 22.1181 46.5847 22.1181 91.7395C22.1181 136.894 58.7233 173.5 103.878 173.5Z" fill="url(#paint0_linear_1_5283)"/>
<path d="M167.127 43.0293H63.2777V94.2779H167.127V43.0293Z" fill="url(#paint1_linear_1_5283)"/>
<path d="M167.127 43.0293H177.55C184.346 43.0293 190.862 45.7287 195.667 50.5336C200.472 55.3385 203.172 61.8554 203.172 68.6506C203.172 75.4458 200.472 81.9626 195.667 86.7676C190.862 91.5725 184.346 94.2719 177.55 94.2719H167.127V43.0293Z" fill="url(#paint2_linear_1_5283)"/>
<path d="M173.869 50.5679H179.832C184.418 50.5679 188.816 52.3897 192.059 55.6326C195.302 58.8755 197.124 63.2738 197.124 67.86V69.4473C197.124 74.0335 195.302 78.4318 192.059 81.6747C188.816 84.9176 184.418 86.7394 179.832 86.7394H173.869V50.5679Z" fill="url(#paint3_linear_1_5283)"/>
<path d="M167.127 51.6304H71.9991V94.2782H167.127V51.6304Z" fill="url(#paint4_linear_1_5283)"/>
<rect x="38.4657" y="102.81" width="38.5682" height="49.3944" fill="url(#paint5_linear_1_5283)"/>
<rect x="85.8304" y="102.81" width="38.5682" height="49.3944" fill="url(#paint6_linear_1_5283)"/>
<rect x="133.195" y="102.81" width="25.0355" height="49.3944" fill="url(#paint7_linear_1_5283)"/>
<path d="M167.127 43.0293H158.26V94.2779H167.127V43.0293Z" fill="url(#paint8_linear_1_5283)"/>
<path d="M85.8302 94.0134L77.0339 94.0134L77.0339 161L85.8301 161L85.8302 94.0134Z" fill="url(#paint9_linear_1_5283)"/>
<path fill-rule="evenodd" clip-rule="evenodd" d="M128.458 102.81V94.0134H38.8425V94.0136H34.4158C31.7945 94.0136 29.6695 96.1386 29.6695 98.7598L29.6695 156.254C29.6695 158.876 31.7945 161.001 34.4158 161.001H38.8428L128.458 161.001V152.204H38.8428L38.8428 102.81H128.458Z" fill="url(#paint10_linear_1_5283)"/>
<path fill-rule="evenodd" clip-rule="evenodd" d="M133.195 94.0134H158.23L167.027 94.0134L167.027 156.254C167.027 158.875 164.902 161 162.28 161H158.23L158.23 161.001H133.195V152.204H158.23V102.81H133.195V94.0134ZM133.195 94.0136H129.145C126.524 94.0136 124.399 96.1386 124.399 98.7598L124.399 161.001H133.195L133.195 94.0136Z" fill="url(#paint11_linear_1_5283)"/>
<path d="M70.237 94.3867V94.4833V97.5313V119.736H94.1968C94.7211 119.736 95.1461 119.311 95.1461 118.787V97.5313V95.336C95.1461 94.8117 94.7211 94.3867 94.1968 94.3867H70.237Z" fill="url(#paint12_linear_1_5283)"/>
<path d="M69.0436 94.3867C68.5194 94.3867 68.0944 94.8117 68.0944 95.336V118.787C68.0944 119.311 68.5194 119.736 69.0436 119.736H93.0034V94.3867H69.0436Z" fill="url(#paint13_linear_1_5283)"/>
<path d="M88.3041 96.813H72.7991C71.7506 96.813 70.9006 97.663 70.9006 98.7115V115.206C70.9006 116.255 71.7506 117.105 72.7991 117.105H88.3041C89.3526 117.105 90.2026 116.255 90.2026 115.206V98.7115C90.2026 97.663 89.3526 96.813 88.3041 96.813Z" fill="url(#paint14_linear_1_5283)"/>
<g filter="url(#filter1_d_1_5283)">
<path d="M24.2565 77.2311L33.6238 100.269C33.7518 100.585 33.9408 100.872 34.1801 101.115C34.4193 101.358 34.7041 101.551 35.0181 101.683C35.3321 101.815 35.6692 101.884 36.0099 101.886C36.3507 101.888 36.6884 101.822 37.0038 101.693L57.9957 93.1651C58.6341 92.9053 59.1432 92.4029 59.4114 91.768C59.6796 91.1332 59.6849 90.4179 59.4262 89.7791L48.5983 63.1499C48.3386 62.5131 47.8367 62.0054 47.203 61.7384C46.5693 61.4713 45.8554 61.4667 45.2183 61.7255L27.7753 68.8174L24.2565 77.2311Z" fill="url(#paint15_linear_1_5283)"/>
</g>
<g filter="url(#filter2_d_1_5283)">
<path d="M172.615 63.6983L163.248 86.7364C163.12 87.0522 162.931 87.3396 162.691 87.5823C162.452 87.8249 162.167 88.0179 161.853 88.1502C161.539 88.2825 161.202 88.3516 160.861 88.3534C160.521 88.3552 160.183 88.2898 159.868 88.1608L138.876 79.6324C138.237 79.3726 137.728 78.8702 137.46 78.2353C137.192 77.6005 137.187 76.8852 137.445 76.2464L148.273 49.6172C148.533 48.9804 149.035 48.4727 149.668 48.2057C150.302 47.9386 151.016 47.934 151.653 48.1928L169.096 55.2847L172.615 63.6983Z" fill="url(#paint16_linear_1_5283)"/>
</g>
<path d="M24.2565 77.2311L30.2137 74.8108L27.7813 68.8174L24.2565 77.2311Z" fill="url(#paint17_linear_1_5283)"/>
<path d="M172.615 63.6983L166.658 61.2781L169.09 55.2847L172.615 63.6983Z" fill="url(#paint18_linear_1_5283)"/>
<path d="M83.0926 107.81C83.8606 107.27 84.4367 106.499 84.7372 105.61C85.0377 104.72 85.0471 103.758 84.7639 102.863C84.4807 101.968 83.9198 101.186 83.1623 100.631C82.4049 100.076 81.4905 99.7773 80.5516 99.7773C79.6127 99.7773 78.6982 100.076 77.9408 100.631C77.1834 101.186 76.6224 101.968 76.3392 102.863C76.0561 103.758 76.0654 104.72 76.3659 105.61C76.6665 106.499 77.2425 107.27 78.0106 107.81L76.1154 114.334H84.9817L83.0926 107.81Z" fill="url(#paint19_linear_1_5283)"/>
<path d="M137.703 39.3418C137.703 40.2912 137.561 41.2352 137.281 42.1424C136.827 43.5969 136.025 44.9187 134.945 45.9931C134.628 46.3141 134.287 46.6107 133.925 46.8803C133.687 47.0658 133.437 47.2351 133.177 47.3873C132.917 47.5465 132.649 47.6915 132.374 47.8219C131.964 48.0245 131.538 48.194 131.1 48.3289C130.193 48.6089 129.249 48.7513 128.3 48.7514H126.549V94.1092H77.6608V38.358C77.6688 36.1274 78.5584 33.9904 80.1357 32.4132C81.713 30.8359 83.8499 29.9463 86.0805 29.9383H128.276C129.451 29.9338 130.617 30.1529 131.71 30.5841C132.013 30.7017 132.309 30.8367 132.597 30.9885C132.742 31.0609 132.881 31.1394 133.02 31.2239C133.134 31.2865 133.245 31.355 133.352 31.4291C133.922 31.7898 134.45 32.2129 134.927 32.6906C135.567 33.3318 136.112 34.0615 136.544 34.8573C136.837 35.3937 137.076 35.9578 137.257 36.5413L137.383 36.994C137.461 37.2964 137.524 37.6026 137.571 37.9114C137.652 38.384 137.696 38.8623 137.703 39.3418Z" fill="url(#paint20_linear_1_5283)"/>
<path d="M137.704 39.3417C137.703 40.2911 137.561 41.2351 137.281 42.1422C137.096 42.7243 136.858 43.288 136.569 43.8262C136.132 44.6209 135.585 45.3503 134.945 45.993C134.628 46.314 134.287 46.6106 133.925 46.8802C133.684 47.0613 133.436 47.2242 133.177 47.3872C132.917 47.5463 132.649 47.6914 132.374 47.8218C131.963 48.0218 131.537 48.1912 131.101 48.3288C130.193 48.6087 129.249 48.7511 128.3 48.7513H126.55V38.3579C126.554 36.6958 127.047 35.0718 127.97 33.6891C128.892 32.3063 130.201 31.2262 131.734 30.584C132.036 30.7047 132.338 30.8375 132.622 30.9884C132.766 31.0608 132.905 31.1393 133.044 31.2238C133.158 31.2864 133.269 31.3549 133.376 31.429C133.946 31.7896 134.475 32.2127 134.951 32.6904C135.591 33.3317 136.136 34.0614 136.569 34.8572C136.859 35.3947 137.097 35.9586 137.281 36.5412L137.408 36.9938C137.486 37.2961 137.549 37.6023 137.595 37.9112C137.668 38.3845 137.704 38.8628 137.704 39.3417Z" fill="url(#paint21_linear_1_5283)"/>
<path d="M116.79 77.5955H85.9172C85.4006 77.5955 84.9817 78.013 84.9817 78.528C84.9817 79.043 85.4006 79.4605 85.9172 79.4605H116.79C117.306 79.4605 117.725 79.043 117.725 78.528C117.725 78.013 117.306 77.5955 116.79 77.5955Z" fill="#A5C4F1"/>
<path d="M116.79 68.0291H85.9172C85.4006 68.0291 84.9817 68.4466 84.9817 68.9616C84.9817 69.4766 85.4006 69.8941 85.9172 69.8941H116.79C117.306 69.8941 117.725 69.4766 117.725 68.9616C117.725 68.4466 117.306 68.0291 116.79 68.0291Z" fill="#A5C4F1"/>
<path d="M116.789 58.4565H96.908C96.3913 58.4565 95.9724 58.874 95.9724 59.389C95.9724 59.9041 96.3913 60.3216 96.908 60.3216H116.789C117.306 60.3216 117.725 59.9041 117.725 59.389C117.725 58.874 117.306 58.4565 116.789 58.4565Z" fill="#A5C4F1"/>
<path d="M103.747 48.8838H85.7C85.3033 48.8838 84.9817 49.2054 84.9817 49.602V50.0306C84.9817 50.4272 85.3033 50.7488 85.7 50.7488H103.747C104.143 50.7488 104.465 50.4272 104.465 50.0306V49.602C104.465 49.2054 104.143 48.8838 103.747 48.8838Z" fill="#A5C4F1"/>
<path d="M92.5564 58.4565H85.9172C85.4006 58.4565 84.9817 58.874 84.9817 59.389C84.9817 59.9041 85.4006 60.3216 85.9172 60.3216H92.5564C93.0731 60.3216 93.492 59.9041 93.492 59.389C93.492 58.874 93.0731 58.4565 92.5564 58.4565Z" fill="#A5C4F1"/>
<path d="M38.8039 102.81H41.8488V152.204H38.8039V102.81Z" fill="url(#paint22_linear_1_5283)"/>
<path d="M85.8304 119.725H88.5369V152.204H85.8304V119.725Z" fill="url(#paint23_linear_1_5283)"/>
<path d="M133.195 102.81H136.24V152.204H133.195V102.81Z" fill="url(#paint24_linear_1_5283)"/>
<g filter="url(#filter3_f_1_5283)">
<ellipse cx="50.3301" cy="61.1289" rx="26.0736" ry="8.38081" fill="#FF4C77" fill-opacity="0.3"/>
</g>
<path d="M25.8803 48.916C26.3832 52.6702 27.8287 56.2358 30.0821 59.2803C32.3355 62.3248 35.3233 64.749 38.7669 66.3266C42.2104 67.9043 45.9974 68.584 49.7746 68.3024C53.5519 68.0209 57.1962 66.7872 60.3678 64.7164L69.0087 67.6539C69.2694 67.7398 69.5492 67.7493 69.8151 67.6812C70.081 67.6131 70.3218 67.4703 70.509 67.2696C70.6963 67.069 70.8222 66.8189 70.8718 66.549C70.9214 66.2791 70.8927 66.0006 70.7891 65.7464L67.3238 57.4806C69.1668 54.4104 70.2475 50.9433 70.4755 47.3695C70.7035 43.7958 70.0722 40.2195 68.6343 36.9399C67.1964 33.6603 64.9938 30.7728 62.2109 28.5192C59.428 26.2656 56.1458 24.7114 52.6389 23.9866C49.132 23.2619 45.5026 23.3878 42.0543 24.3537C38.6061 25.3196 35.4394 27.0974 32.8193 29.5384C30.1992 31.9794 28.2019 35.0125 26.9947 38.3839C25.7874 41.7552 25.4053 45.3667 25.8803 48.916Z" fill="url(#paint25_linear_1_5283)"/>
<path d="M47.5145 57.4134C49.949 57.4134 51.6832 55.7459 51.6832 53.4115C51.6832 51.077 49.949 49.4095 47.5145 49.4095C45.1134 49.4095 43.3458 51.077 43.3458 53.4115C43.3458 55.7459 45.1134 57.4134 47.5145 57.4134ZM50.8494 48.7425C50.8494 46.5415 52.1167 45.7411 53.8509 44.9407C56.152 43.8735 57.8528 41.7058 57.8528 39.0379C57.8528 34.8359 53.7175 31.9011 48.1148 31.9011C42.1119 31.9011 37.8765 35.2694 37.5097 39.9717L45.1801 41.3723C45.3802 39.5381 46.3473 38.2375 47.7146 38.2375C48.7484 38.2375 49.5155 38.9378 49.5155 39.905C49.5155 41.0388 48.3816 41.7392 47.4812 42.2728C45.08 43.8402 44.1796 45.5744 44.1796 48.7425H50.8494Z" fill="white"/>
<path d="M159.234 32.8581C159.234 34.5366 157.874 35.8973 156.195 35.8973C154.517 35.8973 153.156 34.5366 153.156 32.8581C153.156 31.1795 154.517 29.8188 156.195 29.8188C157.874 29.8188 159.234 31.1795 159.234 32.8581Z" stroke="url(#paint26_linear_1_5283)" stroke-width="2.61276"/>
<circle cx="136.236" cy="169.005" r="3.03922" stroke="url(#paint27_linear_1_5283)" stroke-width="2.61276"/>
<path d="M20.5717 125.047C21.8957 124.835 22.9527 126.136 22.4744 127.388L20.7909 131.797C20.3125 133.049 18.6575 133.314 17.8119 132.274L14.8361 128.612C13.9904 127.571 14.5884 126.005 15.9124 125.793L20.5717 125.047Z" fill="url(#paint28_linear_1_5283)"/>
<path d="M179.135 120.596C178.803 119.297 180.003 118.126 181.294 118.489L185.837 119.765C187.127 120.128 187.542 121.752 186.582 122.689L183.205 125.985C182.245 126.921 180.632 126.468 180.301 125.169L179.135 120.596Z" fill="url(#paint29_linear_1_5283)"/>
<path d="M95.5742 8.41711C96.0891 6.28414 99.123 6.28414 99.6379 8.41712L100.204 10.7604C100.388 11.5226 100.983 12.1177 101.745 12.3017L104.088 12.8674C106.221 13.3823 106.221 16.4162 104.088 16.9311L101.745 17.4967C100.983 17.6807 100.388 18.2758 100.204 19.0381L99.6379 21.3813C99.123 23.5143 96.0891 23.5143 95.5742 21.3813L95.0086 19.0381C94.8246 18.2758 94.2295 17.6807 93.4672 17.4967L91.124 16.9311C88.991 16.4162 88.991 13.3823 91.124 12.8674L93.4672 12.3017C94.2295 12.1177 94.8246 11.5226 95.0086 10.7604L95.5742 8.41711Z" fill="url(#paint30_linear_1_5283)"/>
<path d="M57.7954 166.661C58.3103 164.528 61.3442 164.528 61.8591 166.661L62.4247 169.004C62.6087 169.766 63.2039 170.362 63.9661 170.546L66.3093 171.111C68.4423 171.626 68.4423 174.66 66.3093 175.175L63.9661 175.741C63.2039 175.925 62.6087 176.52 62.4247 177.282L61.8591 179.625C61.3442 181.758 58.3103 181.758 57.7954 179.625L57.2298 177.282C57.0458 176.52 56.4506 175.925 55.6884 175.741L53.3452 175.175C51.2122 174.66 51.2122 171.626 53.3452 171.111L55.6884 170.546C56.4506 170.362 57.0458 169.766 57.2298 169.004L57.7954 166.661Z" fill="url(#paint31_linear_1_5283)"/>
<defs>
<filter id="filter0_f_1_5283" x="0.345108" y="117.938" width="201.229" height="73.9652" filterUnits="userSpaceOnUse" color-interpolation-filters="sRGB">
<feFlood flood-opacity="0" result="BackgroundImageFix"/>
<feBlend mode="normal" in="SourceGraphic" in2="BackgroundImageFix" result="shape"/>
<feGaussianBlur stdDeviation="10.8865" result="effect1_foregroundBlur_1_5283"/>
</filter>
<filter id="filter1_d_1_5283" x="21.4088" y="61.5347" width="54.3449" height="60.2858" filterUnits="userSpaceOnUse" color-interpolation-filters="sRGB">
<feFlood flood-opacity="0" result="BackgroundImageFix"/>
<feColorMatrix in="SourceAlpha" type="matrix" values="0 0 0 0 0 0 0 0 0 0 0 0 0 0 0 0 0 0 127 0" result="hardAlpha"/>
<feOffset dx="6.64476" dy="10.4418"/>
<feGaussianBlur stdDeviation="4.74626"/>
<feComposite in2="hardAlpha" operator="out"/>
<feColorMatrix type="matrix" values="0 0 0 0 0.184314 0 0 0 0 0.254902 0 0 0 0 0.443137 0 0 0 0.15 0"/>
<feBlend mode="normal" in2="BackgroundImageFix" result="effect1_dropShadow_1_5283"/>
<feBlend mode="normal" in="SourceGraphic" in2="effect1_dropShadow_1_5283" result="shape"/>
</filter>
<filter id="filter2_d_1_5283" x="134.407" y="48.002" width="54.3449" height="60.2858" filterUnits="userSpaceOnUse" color-interpolation-filters="sRGB">
<feFlood flood-opacity="0" result="BackgroundImageFix"/>
<feColorMatrix in="SourceAlpha" type="matrix" values="0 0 0 0 0 0 0 0 0 0 0 0 0 0 0 0 0 0 127 0" result="hardAlpha"/>
<feOffset dx="6.64476" dy="10.4418"/>
<feGaussianBlur stdDeviation="4.74626"/>
<feComposite in2="hardAlpha" operator="out"/>
<feColorMatrix type="matrix" values="0 0 0 0 0.184314 0 0 0 0 0.254902 0 0 0 0 0.443137 0 0 0 0.15 0"/>
<feBlend mode="normal" in2="BackgroundImageFix" result="effect1_dropShadow_1_5283"/>
<feBlend mode="normal" in="SourceGraphic" in2="effect1_dropShadow_1_5283" result="shape"/>
</filter>
<filter id="filter3_f_1_5283" x="2.48354" y="30.9751" width="95.6932" height="60.3077" filterUnits="userSpaceOnUse" color-interpolation-filters="sRGB">
<feFlood flood-opacity="0" result="BackgroundImageFix"/>
<feBlend mode="normal" in="SourceGraphic" in2="BackgroundImageFix" result="shape"/>
<feGaussianBlur stdDeviation="10.8865" result="effect1_foregroundBlur_1_5283"/>
</filter>
<linearGradient id="paint0_linear_1_5283" x1="103.248" y1="-16.6436" x2="104.923" y2="270.485" gradientUnits="userSpaceOnUse">
<stop stop-color="#CAE0FF" stop-opacity="0"/>
<stop offset="1" stop-color="#BCD8FF"/>
</linearGradient>
<linearGradient id="paint1_linear_1_5283" x1="115.202" y1="43.0293" x2="115.202" y2="94.2779" gradientUnits="userSpaceOnUse">
<stop stop-color="#ABCCFF"/>
<stop offset="1" stop-color="#70A8FF"/>
</linearGradient>
<linearGradient id="paint2_linear_1_5283" x1="185.149" y1="43.0293" x2="185.149" y2="94.2719" gradientUnits="userSpaceOnUse">
<stop stop-color="#70A8FF"/>
<stop offset="1" stop-color="#5597FD"/>
</linearGradient>
<linearGradient id="paint3_linear_1_5283" x1="200.52" y1="87.9235" x2="177.514" y2="57.4748" gradientUnits="userSpaceOnUse">
<stop stop-color="#EDF4FF"/>
<stop offset="1" stop-color="#ABCCFF"/>
</linearGradient>
<linearGradient id="paint4_linear_1_5283" x1="119.563" y1="51.6304" x2="119.563" y2="94.2782" gradientUnits="userSpaceOnUse">
<stop stop-color="#2A64BE"/>
<stop offset="1" stop-color="#6095E7"/>
</linearGradient>
<linearGradient id="paint5_linear_1_5283" x1="87.5218" y1="170.473" x2="40.1573" y2="125.815" gradientUnits="userSpaceOnUse">
<stop stop-color="#EDF4FF"/>
<stop offset="1" stop-color="#ABCCFF"/>
</linearGradient>
<linearGradient id="paint6_linear_1_5283" x1="126.429" y1="156.602" x2="79.064" y2="136.98" gradientUnits="userSpaceOnUse">
<stop stop-color="#EDF4FF"/>
<stop offset="1" stop-color="#ABCCFF"/>
</linearGradient>
<linearGradient id="paint7_linear_1_5283" x1="168.38" y1="157.617" x2="124.399" y2="116.004" gradientUnits="userSpaceOnUse">
<stop stop-color="#EDF4FF"/>
<stop offset="1" stop-color="#ABCCFF"/>
</linearGradient>
<linearGradient id="paint8_linear_1_5283" x1="162.694" y1="43.0293" x2="162.694" y2="94.2779" gradientUnits="userSpaceOnUse">
<stop stop-color="#ABCCFF"/>
<stop offset="1" stop-color="#70A8FF"/>
</linearGradient>
<linearGradient id="paint9_linear_1_5283" x1="66.2077" y1="114.651" x2="60.118" y2="173.856" gradientUnits="userSpaceOnUse">
<stop stop-color="#ABCCFF"/>
<stop offset="1" stop-color="#70A8FF"/>
</linearGradient>
<linearGradient id="paint10_linear_1_5283" x1="27.9779" y1="105.855" x2="124.737" y2="150.512" gradientUnits="userSpaceOnUse">
<stop stop-color="#ABCCFF"/>
<stop offset="1" stop-color="#70A8FF"/>
</linearGradient>
<linearGradient id="paint11_linear_1_5283" x1="200.52" y1="135.627" x2="139.961" y2="137.656" gradientUnits="userSpaceOnUse">
<stop stop-color="#70A8FF"/>
<stop offset="1" stop-color="#5597FD"/>
</linearGradient>
<linearGradient id="paint12_linear_1_5283" x1="82.6915" y1="94.3867" x2="82.6915" y2="119.736" gradientUnits="userSpaceOnUse">
<stop stop-color="#70A8FF"/>
<stop offset="1" stop-color="#5597FD"/>
</linearGradient>
<linearGradient id="paint13_linear_1_5283" x1="80.5489" y1="94.3867" x2="80.5489" y2="119.736" gradientUnits="userSpaceOnUse">
<stop stop-color="#ABCCFF"/>
<stop offset="1" stop-color="#70A8FF"/>
</linearGradient>
<linearGradient id="paint14_linear_1_5283" x1="80.5516" y1="96.813" x2="80.5516" y2="117.105" gradientUnits="userSpaceOnUse">
<stop stop-color="#70A8FF"/>
<stop offset="1" stop-color="#5597FD"/>
</linearGradient>
<linearGradient id="paint15_linear_1_5283" x1="55.7789" y1="79.4929" x2="31.971" y2="77.1158" gradientUnits="userSpaceOnUse">
<stop stop-color="#C6DDFF"/>
<stop offset="1" stop-color="white"/>
</linearGradient>
<linearGradient id="paint16_linear_1_5283" x1="141.092" y1="65.9602" x2="164.9" y2="63.5831" gradientUnits="userSpaceOnUse">
<stop stop-color="#C6DDFF"/>
<stop offset="1" stop-color="white"/>
</linearGradient>
<linearGradient id="paint17_linear_1_5283" x1="27.2351" y1="68.8174" x2="27.2351" y2="77.2311" gradientUnits="userSpaceOnUse">
<stop stop-color="#EDF4FF"/>
<stop offset="1" stop-color="#ABCCFF"/>
</linearGradient>
<linearGradient id="paint18_linear_1_5283" x1="169.636" y1="55.2847" x2="169.636" y2="63.6983" gradientUnits="userSpaceOnUse">
<stop stop-color="#EDF4FF"/>
<stop offset="1" stop-color="#ABCCFF"/>
</linearGradient>
<linearGradient id="paint19_linear_1_5283" x1="78.3871" y1="110.252" x2="87.1834" y2="110.591" gradientUnits="userSpaceOnUse">
<stop stop-color="#2A64BE"/>
<stop offset="1" stop-color="#4B80D1"/>
</linearGradient>
<linearGradient id="paint20_linear_1_5283" x1="107.682" y1="29.9382" x2="107.682" y2="94.1092" gradientUnits="userSpaceOnUse">
<stop stop-color="#EDF4FF"/>
<stop offset="1" stop-color="#ABCCFF"/>
</linearGradient>
<linearGradient id="paint21_linear_1_5283" x1="133.533" y1="46.3105" x2="120.339" y2="36.161" gradientUnits="userSpaceOnUse">
<stop stop-color="#EDF4FF"/>
<stop offset="1" stop-color="#ABCCFF"/>
</linearGradient>
<linearGradient id="paint22_linear_1_5283" x1="17.4899" y1="149.836" x2="81.5395" y2="142.64" gradientUnits="userSpaceOnUse">
<stop offset="0.09375" stop-color="#2A64BE"/>
<stop offset="1" stop-color="#2A64BE" stop-opacity="0"/>
</linearGradient>
<linearGradient id="paint23_linear_1_5283" x1="66.8846" y1="150.647" x2="123.236" y2="142.089" gradientUnits="userSpaceOnUse">
<stop offset="0.09375" stop-color="#2A64BE"/>
<stop offset="1" stop-color="#2A64BE" stop-opacity="0"/>
</linearGradient>
<linearGradient id="paint24_linear_1_5283" x1="111.881" y1="149.836" x2="164.373" y2="154.442" gradientUnits="userSpaceOnUse">
<stop offset="0.09375" stop-color="#265FB8"/>
<stop offset="1" stop-color="#84B4FF"/>
</linearGradient>
<linearGradient id="paint25_linear_1_5283" x1="25.8984" y1="26.5397" x2="70.5745" y2="68.8832" gradientUnits="userSpaceOnUse">
<stop stop-color="#FF698D"/>
<stop offset="1" stop-color="#FF3868"/>
</linearGradient>
<linearGradient id="paint26_linear_1_5283" x1="150.854" y1="30.1421" x2="164.434" y2="41.9114" gradientUnits="userSpaceOnUse">
<stop stop-color="#94BFFF"/>
<stop offset="1" stop-color="#4C94FE"/>
</linearGradient>
<linearGradient id="paint27_linear_1_5283" x1="130.895" y1="166.289" x2="144.475" y2="178.058" gradientUnits="userSpaceOnUse">
<stop stop-color="#94BFFF"/>
<stop offset="1" stop-color="#4C94FE"/>
</linearGradient>
<linearGradient id="paint28_linear_1_5283" x1="23.5507" y1="124.57" x2="13.9151" y2="132.4" gradientUnits="userSpaceOnUse">
<stop stop-color="#70A8FF"/>
<stop offset="1" stop-color="#5597FD"/>
</linearGradient>
<linearGradient id="paint29_linear_1_5283" x1="178.389" y1="117.673" x2="187.062" y2="126.558" gradientUnits="userSpaceOnUse">
<stop stop-color="#70A8FF"/>
<stop offset="1" stop-color="#5597FD"/>
</linearGradient>
<linearGradient id="paint30_linear_1_5283" x1="97.6061" y1="0" x2="97.6061" y2="29.7984" gradientUnits="userSpaceOnUse">
<stop stop-color="#70A8FF"/>
<stop offset="1" stop-color="#5597FD"/>
</linearGradient>
<linearGradient id="paint31_linear_1_5283" x1="59.8273" y1="158.244" x2="59.8273" y2="188.042" gradientUnits="userSpaceOnUse">
<stop stop-color="#70A8FF"/>
<stop offset="1" stop-color="#5597FD"/>
</linearGradient>
</defs>
</svg>
