<svg width="24" height="24" viewBox="0 0 24 24" fill="none" xmlns="http://www.w3.org/2000/svg">
<path d="M19.5347 17.6804L19.5347 17.6805C19.6212 17.8859 19.8211 18.0099 20.0314 18.0099C20.0989 18.0099 20.1703 17.9995 20.2427 17.9664C20.5176 17.8521 20.6455 17.5345 20.5328 17.2606L20.5326 17.2602L19.7976 15.5006V15.4961L19.7906 15.4795L18.1134 11.464L18.1134 11.464L18.113 11.4629C18.027 11.2643 17.8331 11.1344 17.6167 11.1344C17.4018 11.1344 17.2017 11.2629 17.1198 11.4643C17.1197 11.4645 17.1196 11.4647 17.1196 11.4648L15.4382 15.4794L15.4382 15.4795L14.6962 17.2557L14.6962 17.2557L14.6961 17.2561C14.5828 17.531 14.7123 17.8427 14.9848 17.9613C15.2499 18.0872 15.5681 17.9534 15.6808 17.6801C15.6808 17.68 15.6808 17.6799 15.6809 17.6798L16.2871 16.2337H18.9283L19.5347 17.6804ZM16.74 15.1544L17.6079 13.0763L18.4796 15.1544H16.74Z" fill="#1F1F1F" stroke="black" stroke-width="0.18"/>
<path d="M10.673 6.35897C10.3759 6.35897 10.1333 6.60162 10.1333 6.89864V8.99401H9.67946C9.42055 7.4998 8.11506 6.35897 6.54954 6.35897C6.25252 6.35897 6.00988 6.60162 6.00988 6.89864C6.00988 7.19566 6.25252 7.4383 6.54954 7.4383C7.51951 7.4383 8.33827 8.10004 8.57612 8.99401H3.91451C3.61749 8.99401 3.37484 9.23665 3.37484 9.53367C3.37484 11.2831 4.80011 12.7084 6.54954 12.7084C8.11506 12.7084 9.42055 11.5675 9.67946 10.0733H10.1333V12.1687C10.1333 12.4657 10.3759 12.7084 10.673 12.7084C10.97 12.7084 11.2126 12.4657 11.2126 12.1687V6.89864C11.2126 6.60162 10.97 6.35897 10.673 6.35897ZM6.54954 11.6335C5.57957 11.6335 4.76082 10.9718 4.52297 10.0778H8.57612C8.33827 10.9718 7.51951 11.6335 6.54954 11.6335Z" fill="#1F1F1F" stroke="black" stroke-width="0.18"/>
<path d="M15.179 9.03007H22.2522V20.1232H11.5312L13.8506 15.8811L13.8506 15.8811L13.8521 15.8782C13.8572 15.8679 13.86 15.8596 13.8614 15.8555L13.8615 15.8551C13.8624 15.8524 13.8619 15.8541 13.8611 15.8557C13.8758 15.8264 13.8844 15.7923 13.8902 15.7697C13.8917 15.7638 13.893 15.7588 13.8941 15.7547C13.895 15.7517 13.8959 15.7486 13.8969 15.7452C13.9039 15.7213 13.9137 15.688 13.9153 15.6505C13.9174 15.6434 13.9201 15.6316 13.9201 15.6176V3.44966C13.9201 3.15264 13.6774 2.91 13.3804 2.91H1.20797C0.910944 2.91 0.668301 3.15264 0.668301 3.44966V15.6221C0.668301 15.9191 0.910944 16.1618 1.20797 16.1618H10.0798V20.6628C10.0798 20.6872 10.0849 20.7061 10.0889 20.7189C10.0906 20.7242 10.0917 20.7276 10.0925 20.7301C10.0936 20.7334 10.0941 20.735 10.0946 20.737L10.0947 20.7374C10.0988 20.7664 10.1043 20.8049 10.1159 20.8397C10.1281 20.8764 10.1459 20.9059 10.1638 20.933C10.1789 20.9626 10.1972 20.9929 10.2276 21.0232L10.2912 20.9596L10.2276 21.0233C10.254 21.0497 10.2805 21.0709 10.3107 21.0912C10.3128 21.0929 10.3145 21.0945 10.3177 21.0975C10.3195 21.0992 10.3218 21.1013 10.3248 21.1041C10.3336 21.1121 10.3476 21.1244 10.3679 21.1345C10.3822 21.1417 10.3958 21.1449 10.3996 21.1458C10.4137 21.1523 10.43 21.1577 10.4403 21.1611L10.4415 21.1615C10.4955 21.1811 10.5602 21.198 10.6239 21.198H22.7919C23.0889 21.198 23.3315 20.9554 23.3315 20.6583V8.49041C23.3315 8.19339 23.0889 7.95074 22.7919 7.95074H15.179C14.882 7.95074 14.6394 8.19339 14.6394 8.49041C14.6394 8.78743 14.882 9.03007 15.179 9.03007ZM1.74763 3.98933H12.8407V15.0824H1.74763V3.98933ZM11.1591 16.1618H12.4686L11.1591 18.5529V16.1618Z" fill="#1F1F1F" stroke="black" stroke-width="0.18"/>
</svg>
