<svg width="18" height="18" viewBox="0 0 18 18" fill="none" xmlns="http://www.w3.org/2000/svg">
<path d="M8.32273 8.91818L4.89318 6.20455C4.825 6.15 4.72727 6.2 4.72727 6.28636V8.22727H1.54545V1.54545H6.18182V4.45455C6.18182 4.50455 6.22273 4.54545 6.27273 4.54545H7.63636C7.68636 4.54545 7.72727 4.50455 7.72727 4.45455V0.636364C7.72727 0.284091 7.44318 0 7.09091 0H0.636364C0.284091 0 0 0.284091 0 0.636364V17.3636C0 17.7159 0.284091 18 0.636364 18H7.09091C7.44318 18 7.72727 17.7159 7.72727 17.3636V13.5455C7.72727 13.4955 7.68636 13.4545 7.63636 13.4545H6.27273C6.22273 13.4545 6.18182 13.4955 6.18182 13.5455V16.4545H1.54545V9.77273H4.72727V11.7136C4.72727 11.8 4.82727 11.85 4.89318 11.7955L8.32273 9.08182C8.37727 9.04091 8.37727 8.95909 8.32273 8.91818ZM17.3636 0H10.9091C10.5568 0 10.2727 0.284091 10.2727 0.636364V4.45455C10.2727 4.50455 10.3136 4.54545 10.3636 4.54545H11.7273C11.7773 4.54545 11.8182 4.50455 11.8182 4.45455V1.54545H16.4545V8.22727H13.2727V6.28636C13.2727 6.2 13.175 6.15 13.1068 6.20455L9.675 8.91818C9.62273 8.95909 9.62273 9.03864 9.675 9.07955L13.1068 11.7955C13.1727 11.8477 13.2727 11.8 13.2727 11.7136V9.77273H16.4545V16.4545H11.8182V13.5455C11.8182 13.4955 11.7773 13.4545 11.7273 13.4545H10.3636C10.3136 13.4545 10.2727 13.4955 10.2727 13.5455V17.3636C10.2727 17.7159 10.5568 18 10.9091 18H17.3636C17.7159 18 18 17.7159 18 17.3636V0.636364C18 0.284091 17.7159 0 17.3636 0Z" fill="#BEBEBE"/>
</svg>
