<svg width="19" height="19" viewBox="0 0 19 19" fill="none" xmlns="http://www.w3.org/2000/svg">
<path d="M12.6162 3.82813C12.4826 3.96156 12.3015 4.03651 12.1127 4.03651C11.9238 4.03651 11.7427 3.96156 11.6091 3.82813L10.2125 2.43153V5.93726C10.2125 6.12624 10.1375 6.30748 10.0038 6.44111C9.87022 6.57474 9.68898 6.64981 9.5 6.64981C9.31102 6.64981 9.12978 6.57474 8.99615 6.44111C8.86252 6.30748 8.78745 6.12624 8.78745 5.93726V2.43153L7.39086 3.82813C7.25579 3.95399 7.07713 4.02251 6.89253 4.01925C6.70793 4.016 6.53181 3.94122 6.40126 3.81067C6.2707 3.68011 6.19592 3.50399 6.19267 3.31939C6.18941 3.13479 6.25793 2.95613 6.38379 2.82106L8.99647 0.208387C9.13007 0.0749501 9.31117 0 9.5 0C9.68883 0 9.86993 0.0749501 10.0035 0.208387L12.6162 2.82106C12.7496 2.95466 12.8246 3.13577 12.8246 3.32459C12.8246 3.51342 12.7496 3.69452 12.6162 3.82813ZM3.82813 11.6091C3.89813 11.6744 3.95428 11.753 3.99323 11.8404C4.03217 11.9278 4.05311 12.0222 4.0548 12.1179C4.05649 12.2136 4.03889 12.3086 4.00305 12.3973C3.96722 12.486 3.91388 12.5666 3.84621 12.6343C3.77855 12.702 3.69795 12.7553 3.60923 12.7911C3.5205 12.827 3.42547 12.8446 3.3298 12.8429C3.23412 12.8412 3.13977 12.8203 3.05236 12.7813C2.96496 12.7424 2.88629 12.6862 2.82106 12.6162L0.208387 10.0035C0.0749501 9.86993 0 9.68883 0 9.5C0 9.31117 0.0749501 9.13007 0.208387 8.99647L2.82106 6.38379C2.95613 6.25793 3.13479 6.18941 3.31939 6.19267C3.50399 6.19592 3.68011 6.2707 3.81067 6.40126C3.94122 6.53181 4.016 6.70793 4.01925 6.89253C4.02251 7.07713 3.95399 7.25579 3.82813 7.39086L2.43153 8.78745H5.93726C6.12624 8.78745 6.30748 8.86252 6.44111 8.99615C6.57474 9.12978 6.64981 9.31102 6.64981 9.5C6.64981 9.68898 6.57474 9.87022 6.44111 10.0038C6.30748 10.1375 6.12624 10.2125 5.93726 10.2125H2.43153L3.82813 11.6091ZM15.1719 12.6162C15.0384 12.4826 14.9635 12.3015 14.9635 12.1127C14.9635 11.9238 15.0384 11.7427 15.1719 11.6091L16.5685 10.2125H13.0627C12.8738 10.2125 12.6925 10.1375 12.5589 10.0038C12.4253 9.87022 12.3502 9.68898 12.3502 9.5C12.3502 9.31102 12.4253 9.12978 12.5589 8.99615C12.6925 8.86252 12.8738 8.78745 13.0627 8.78745H16.5685L15.1719 7.39086C15.046 7.25579 14.9775 7.07713 14.9807 6.89253C14.984 6.70793 15.0588 6.53181 15.1893 6.40126C15.3199 6.2707 15.496 6.19592 15.6806 6.19267C15.8652 6.18941 16.0439 6.25793 16.1789 6.38379L18.7916 8.99647C18.9251 9.13007 19 9.31117 19 9.5C19 9.68883 18.9251 9.86993 18.7916 10.0035L16.1789 12.6162C16.0453 12.7496 15.8642 12.8246 15.6754 12.8246C15.4866 12.8246 15.3055 12.7496 15.1719 12.6162ZM12.6162 15.1719C12.4826 15.0384 12.3015 14.9635 12.1127 14.9635C11.9238 14.9635 11.7427 15.0384 11.6091 15.1719L10.2125 16.5685V13.0627C10.2125 12.8738 10.1375 12.6925 10.0038 12.5589C9.87022 12.4253 9.68898 12.3502 9.5 12.3502C9.31102 12.3502 9.12978 12.4253 8.99615 12.5589C8.86252 12.6925 8.78745 12.8738 8.78745 13.0627V16.5685L7.39086 15.1719C7.25579 15.046 7.07713 14.9775 6.89253 14.9807C6.70793 14.984 6.53181 15.0588 6.40126 15.1893C6.2707 15.3199 6.19592 15.496 6.19267 15.6806C6.18941 15.8652 6.25793 16.0439 6.38379 16.1789L8.99647 18.7916C9.13007 18.9251 9.31117 19 9.5 19C9.68883 19 9.86993 18.9251 10.0035 18.7916L12.6162 16.1789C12.7496 16.0453 12.8246 15.8642 12.8246 15.6754C12.8246 15.4866 12.7496 15.3055 12.6162 15.1719Z" fill="#4B68FF"/>
</svg>
