<svg width="50" height="50" viewBox="0 0 50 50" fill="none" xmlns="http://www.w3.org/2000/svg">
<path d="M32.4025 32.8115C31.7017 32.7694 30.0166 32.8692 28.329 33.1897C27.3528 32.202 26.5075 30.9577 25.8804 29.9315C27.8899 24.1554 26.6172 22.5137 24.9042 22.5137C23.5589 22.5137 22.8873 23.9329 23.0368 25.5009C23.1124 26.2902 23.781 27.9488 24.6041 29.5242C24.0992 30.8517 23.1981 33.0955 22.3037 34.7193C21.2567 35.0374 20.3587 35.3908 19.7143 35.689C16.5041 37.1814 16.2461 39.1741 16.9141 40.0185C18.1824 41.6226 20.8847 40.2386 23.5962 35.3908C25.4525 34.8631 27.8949 34.16 28.115 34.16C28.1404 34.16 28.1752 34.1681 28.2155 34.1811C29.5688 35.374 31.167 36.7399 32.4825 36.9197C34.386 37.1814 35.4695 35.8013 35.3944 34.9431C35.3199 34.0844 34.8182 32.9565 32.4025 32.8115ZM20.386 38.0406C19.6014 38.9732 18.3325 39.8678 17.8846 39.5702C17.4362 39.2721 17.3618 38.4139 18.3703 37.443C19.3781 36.4733 21.0651 35.9699 21.3187 35.8756C21.6183 35.764 21.6928 35.8756 21.6928 36.025C21.6928 36.1744 21.1699 37.1069 20.386 38.0406ZM23.8213 25.5002C23.7462 24.5665 23.9323 23.6713 24.7168 23.5596C25.5002 23.4468 25.8742 24.3427 25.5758 25.7979C25.2768 27.255 25.1268 28.2241 24.9779 28.3376C24.8285 28.4492 24.6802 28.0752 24.6802 28.0752C24.3807 27.4775 23.8957 26.4327 23.8213 25.5002ZM24.1202 34.271C24.5301 33.5982 25.5758 30.8752 25.5758 30.8752C25.7998 31.2862 27.5537 33.3744 27.5537 33.3744C27.5537 33.3744 24.8657 33.9728 24.1202 34.271ZM32.2567 35.4639C31.1372 35.3164 29.2338 33.9709 29.2338 33.9709C28.9728 33.8593 31.3196 33.5406 32.2208 33.5983C33.3787 33.6734 33.7892 34.1588 33.7892 34.6437C33.7892 35.1291 33.3787 35.6134 32.2567 35.4639Z" fill="black"/>
<path d="M45.0673 12.7837L35.2171 2.93273L34.2843 2H32.9638H12.8755C8.13241 2 4.27369 5.85953 4.27369 10.6042V11.2623H3V21.5525H4.27369V39.0395C4.27369 43.7834 8.13252 47.6429 12.8756 47.6429H37.3966C42.1412 47.6429 46 43.7834 46 39.0395V15.0369V13.7171L45.0673 12.7837ZM37.3965 44.4569H12.8755C9.88308 44.4569 7.45801 42.0317 7.45801 39.0394V21.5524H23.2148V11.2622H7.45801V10.6041C7.45801 7.611 9.88308 5.18502 12.8755 5.18502H32.2016V11.2844C32.2016 13.7773 34.224 15.7983 36.7169 15.7983H42.8155V39.0393C42.8155 42.0318 40.3896 44.4569 37.3965 44.4569ZM7.68137 18.6359V13.8727C7.68137 13.7886 7.74979 13.72 7.83403 13.72H9.34731C9.59672 13.72 9.82669 13.761 10.0321 13.8414C10.2354 13.921 10.414 14.0327 10.5629 14.1742C10.7132 14.3163 10.8286 14.4891 10.9068 14.6871C10.9849 14.8813 11.0252 15.0936 11.0252 15.3175C11.0252 15.5461 10.9849 15.7597 10.906 15.9518C10.8278 16.1439 10.7124 16.3143 10.5636 16.458C10.4155 16.6009 10.2361 16.7133 10.0306 16.7915C9.82669 16.8696 9.59672 16.909 9.34731 16.909H8.70866V18.636C8.70866 18.7201 8.64025 18.7885 8.55611 18.7885H7.83413C7.74979 18.7885 7.68137 18.72 7.68137 18.6359ZM12.3485 18.6359V13.8727C12.3485 13.7886 12.417 13.72 12.5012 13.72H14.1737C14.4915 13.72 14.7715 13.7729 15.0075 13.8771C15.2465 13.9834 15.46 14.1525 15.6432 14.3788C15.7378 14.4979 15.8129 14.6296 15.8672 14.771C15.9201 14.9088 15.9602 15.0577 15.9863 15.2125C16.0116 15.3658 16.0265 15.5311 16.0317 15.709C16.0362 15.8787 16.0384 16.0611 16.0384 16.2546C16.0384 16.4473 16.0362 16.6298 16.0317 16.7995C16.0265 16.9767 16.0116 17.1426 15.9863 17.2967C15.9602 17.4515 15.9201 17.5997 15.8672 17.7373C15.8121 17.8802 15.737 18.0121 15.6438 18.1288C15.4593 18.3574 15.2456 18.5264 15.0074 18.6313C14.7736 18.7354 14.493 18.7883 14.1736 18.7883H12.5011C12.4169 18.7885 12.3485 18.72 12.3485 18.6359ZM20.32 15.8208C20.4041 15.8208 20.4725 15.8893 20.4725 15.9734V16.6225C20.4725 16.7066 20.4041 16.7751 20.32 16.7751H18.4926V18.6361C18.4926 18.7202 18.4241 18.7886 18.34 18.7886H17.6179C17.5337 18.7886 17.4653 18.7202 17.4653 18.6361V13.8729C17.4653 13.7888 17.5337 13.7202 17.6179 13.7202H20.3877C20.4717 13.7202 20.5404 13.7887 20.5404 13.8729V14.5219C20.5404 14.6061 20.4718 14.6746 20.3877 14.6746H18.4926V15.8209L20.32 15.8208Z" fill="black"/>
<path d="M9.81761 15.7934C9.93901 15.684 9.99771 15.5285 9.99771 15.3177C9.99771 15.1078 9.93891 14.9522 9.81761 14.8428C9.69111 14.7297 9.52433 14.6746 9.30698 14.6746H8.7085V15.9615H9.30698C9.52423 15.9616 9.69111 15.9066 9.81761 15.7934Z" fill="black"/>
<path d="M14.4971 17.7738C14.6103 17.7313 14.7078 17.6629 14.7949 17.5646C14.8895 17.459 14.949 17.3071 14.9721 17.1128C14.9981 16.8916 15.0108 16.6029 15.0108 16.2545C15.0108 15.9054 14.9981 15.6165 14.9721 15.3962C14.949 15.2013 14.8895 15.0494 14.7956 14.9444C14.7086 14.8461 14.608 14.7763 14.4979 14.7352C14.3795 14.6898 14.2441 14.6675 14.0931 14.6675H13.3755V17.8407H14.0931C14.2433 17.8408 14.3795 17.8184 14.4971 17.7738Z" fill="black"/>
</svg>
