<svg width="277" height="208" viewBox="0 0 277 208" fill="none" xmlns="http://www.w3.org/2000/svg">
<path d="M159.431 17.2252C122.37 14.7254 111.466 19.1664 51.3852 45.1116C51.3852 45.1116 20.9315 54.6049 11.3912 94.7968C1.85142 134.989 31.3531 163.919 76.7233 176.869C122.094 189.82 175.219 205.649 209.161 192.663C243.103 179.676 265.628 154.716 265.958 109.795C266.288 64.8744 229.518 21.9526 159.431 17.2252Z" fill="#B3B6F8"/>
<path d="M127.88 53.9634L66.6358 63.3814C62.0152 64.1648 58.9049 68.5462 59.6883 73.1668L66.1544 109.032C66.9377 113.653 71.3186 116.763 75.9392 115.98L136.736 104.849C141.356 104.066 144.467 99.6852 143.683 95.0646L137.665 60.9115C136.881 56.2909 132.501 53.18 127.88 53.9634Z" fill="white"/>
<path d="M124.491 48.4708L61.0595 59.4894C56.4415 60.2874 53.3439 64.6773 54.1419 69.2952L60.4592 105.865C61.2566 110.483 65.6471 113.58 70.265 112.783L133.697 101.764C138.315 100.967 141.412 96.5765 140.614 91.9586L134.297 55.3883C133.499 50.7704 129.109 47.6733 124.491 48.4708ZM56.0579 68.9644C55.4439 65.4103 57.8361 62.0193 61.3903 61.4059L124.822 50.3867C128.376 49.7734 131.767 52.165 132.38 55.7191L138.698 92.2894C139.312 95.8435 136.92 99.2345 133.366 99.8479L69.9342 110.867C66.3801 111.48 62.9891 109.089 62.3752 105.535L56.0579 68.9644Z" fill="#021C5E"/>
<path d="M86.3178 91.6782L72.3042 94.0545C69.5731 94.5176 66.9843 92.6792 66.5206 89.9487L63.9209 74.6165C63.4578 71.886 65.2962 69.2966 68.0273 68.8335L82.0409 66.4566C84.7714 65.9935 87.3607 67.8319 87.8239 70.563L90.4242 85.8947C90.8873 88.6258 89.0489 91.2151 86.3178 91.6782Z" fill="#52B7F6"/>
<path d="M85.7861 84.0994C85.4339 81.2537 83.358 79.0293 80.6906 78.277C81.2202 77.4849 81.5402 76.5397 81.5604 75.5167C81.6165 72.6673 79.3522 70.3119 76.5028 70.2558C73.6535 70.1996 71.2975 72.464 71.2414 75.3133C71.2098 76.9149 71.9115 78.3598 73.0378 79.3289C70.7664 80.7421 69.3965 83.329 69.7376 86.0863L70.4756 91.3462L86.2765 88.3503L85.7861 84.0994ZM76.455 72.6859C77.9596 72.7156 79.1599 73.9635 79.1303 75.4688C79.1006 76.9735 77.8521 78.1738 76.3474 78.1441C74.8421 78.1144 73.6418 76.8659 73.6715 75.3612C73.7012 73.856 74.9497 72.6563 76.455 72.6859ZM78.7935 80.4324C81.1273 80.4784 83.0944 82.1789 83.3727 84.3895L83.6027 86.3835L72.5285 88.483L72.1474 85.7699C72.0061 84.5848 72.3505 83.4076 73.1199 82.4538C73.9121 81.4717 75.0541 80.8435 76.337 80.6848L78.0691 80.4701L78.7935 80.4324Z" fill="#021C5E"/>
<path d="M125.41 60.8703C125.306 60.2754 124.74 59.8776 124.144 59.9821L94.9993 65.0742C94.4043 65.1781 94.0065 65.745 94.1104 66.3399C94.2017 66.8639 94.6523 67.2361 95.165 67.2462C95.2345 67.2476 95.3047 67.2414 95.3762 67.2294L124.521 62.1361C125.116 62.0322 125.514 61.4652 125.41 60.8703Z" fill="#021C5E"/>
<path d="M107.112 72.8596C107.706 72.7557 108.105 72.1894 108 71.5944C107.897 70.9995 107.331 70.6011 106.735 70.7056L96.8794 72.4278C96.2839 72.5317 95.886 73.0975 95.99 73.693C96.0819 74.217 96.5319 74.5886 97.0445 74.5987C97.114 74.6001 97.1848 74.5951 97.2557 74.5824L107.112 72.8596Z" fill="#021C5E"/>
<path d="M124.451 76.0571C124.347 75.4621 123.781 75.0637 123.185 75.1682L98.0209 79.5654C97.426 79.6693 97.0276 80.2362 97.1315 80.8312C97.2234 81.3558 97.6734 81.7268 98.1867 81.7369C98.2556 81.7382 98.3263 81.7332 98.3973 81.7206L123.562 77.3228C124.157 77.2189 124.555 76.652 124.451 76.0571Z" fill="#021C5E"/>
<path d="M99.7816 88.6538L109.772 86.9085C110.367 86.8046 110.764 86.2383 110.66 85.6428C110.557 85.0478 109.991 84.65 109.395 84.7539L99.4053 86.4992C98.8097 86.6031 98.4119 87.1701 98.5158 87.7656C98.6071 88.2896 99.0578 88.66 99.5704 88.6701C99.6399 88.6715 99.7107 88.6665 99.7816 88.6538Z" fill="#021C5E"/>
<path d="M127.167 90.023C127.063 89.4281 126.497 89.0297 125.901 89.1342L100.327 93.6033C99.7322 93.7072 99.3344 94.2736 99.4383 94.8691C99.5296 95.3931 99.9802 95.7641 100.493 95.7742C100.562 95.7756 100.633 95.7705 100.704 95.7579L126.278 91.2888C126.873 91.1849 127.271 90.6179 127.167 90.023Z" fill="#021C5E"/>
<path d="M91.9234 113.976C90.9134 109.469 90.759 108.001 90.759 108.001L80.8574 109.821C80.8574 109.821 75.7153 118.693 75.6735 125.467C75.6317 132.242 74.3868 135.863 73.5868 138.877C72.7861 141.892 69.7487 149.241 69.7487 149.241C69.7487 149.241 80.7753 145.345 81.5724 142.065C82.3696 138.785 80.8159 134.633 80.8159 134.633C80.8159 134.633 88.3701 131.676 89.0075 127.195C89.6454 122.714 87.8436 121.221 87.8436 121.221C87.8436 121.221 92.9333 118.482 91.9234 113.976Z" fill="white"/>
<path d="M83.2646 104.904C83.2646 104.904 97.3609 86.0588 89.4811 81.3212C81.6013 76.5841 72.2457 97.6205 71.2525 99.4409C70.2592 101.261 65.6687 107.99 62.3049 110.622C62.3049 110.622 60.7327 106.876 60.0838 103.196C58.0835 91.8578 55.967 79.5748 55.967 79.5748C55.967 79.5748 36.1074 94.0222 32.9115 106.48C29.7157 118.938 29.249 150.857 21.4424 161.165C13.6365 171.473 7.85813 173.977 2.29271 178.304L37.8433 198.266C37.8433 198.266 43.0193 183.883 56.7196 168.147C70.4194 152.411 70.6324 147.175 74.026 133.397C74.026 133.397 72.6807 122.082 83.2646 104.904Z" fill="white"/>
<path d="M46.8404 89.1654C52.0217 84.2325 57.0212 80.2013 57.071 80.1608C57.5939 79.74 57.6779 78.9753 57.2572 78.4525C56.8364 77.9296 56.0717 77.8461 55.5482 78.2669C55.4977 78.3074 50.4289 82.3927 45.1755 87.3937C38.006 94.2185 33.9057 99.4526 32.9887 102.95C31.9011 107.095 30.7997 114.822 29.5246 123.768C28.356 131.972 27.0314 141.269 25.4878 149.291C22.4306 165.17 2.1892 176.619 1.98543 176.733C1.39897 177.06 1.18812 177.8 1.51477 178.386C1.7331 178.778 2.13523 179.002 2.55329 179.01C2.76116 179.014 2.973 178.965 3.16729 178.857C3.38523 178.735 8.57343 175.826 14.2337 170.806C23.7885 162.333 26.9254 154.68 27.8747 149.75C29.4294 141.671 30.7587 132.342 31.9314 124.111C33.1957 115.239 34.2871 107.577 35.3387 103.567C35.8894 101.468 38.332 97.2664 46.8404 89.1654Z" fill="#021C5E"/>
<path d="M92.0131 108.206L91.7266 107.154L83.2901 108.494C83.5031 108.149 83.7215 107.797 83.9488 107.434C91.0393 96.1446 94.1415 90.9002 93.3649 84.8989C93.3391 84.6992 93.3073 84.5052 93.2713 84.3141C93.2708 84.3112 93.2703 84.3088 93.2697 84.3059C92.7773 81.6969 91.3528 79.8808 89.3009 79.2843C87.6526 78.8056 85.802 79.1692 83.9172 80.291C83.8752 80.3141 83.8345 80.3372 83.7948 80.3651C82.4237 81.2043 81.0366 82.4421 79.6976 84.0495C76.5017 87.8867 74.9882 90.7938 73.3861 93.8708C72.1173 96.3067 70.806 98.8258 68.5225 102.123C63.5432 109.312 55.0982 112.893 54.9698 112.947C54.3497 113.204 54.0547 113.914 54.3112 114.535C54.5676 115.155 55.2785 115.45 55.8992 115.193C56.2726 115.038 65.1106 111.318 70.5204 103.507C72.891 100.084 74.2994 97.3795 75.5421 94.9933C77.0902 92.0198 78.4397 89.4336 81.2451 85.9965C80.5293 89.5081 81.9174 91.4215 83.2878 92.4275C84.0087 92.9563 84.7883 93.2328 85.5865 93.2485C85.9654 93.256 86.349 93.2046 86.732 93.0935C88.0438 92.714 89.3397 91.6321 90.5964 89.8712C89.5509 93.8103 86.671 98.5304 81.8908 106.142C75.4871 116.339 74.7886 120.068 74.0297 126.982L74.0297 126.983C73.9848 127.394 73.9391 127.814 73.8926 128.249L73.8218 128.904C73.6345 130.644 73.3188 133.564 72.4783 137.234C72.4377 137.342 72.4098 137.453 72.4005 137.569C70.6681 144.945 66.8176 155.229 57.731 165.077C44.7564 179.139 37.5826 196.492 37.5114 196.666C37.2574 197.287 37.5553 197.997 38.1765 198.25C38.3196 198.308 38.4668 198.338 38.6122 198.341C39.0997 198.35 39.5656 198.064 39.7614 197.585C39.8308 197.415 46.8371 180.468 59.5174 166.725C64.7907 161.011 68.3657 155.158 70.8095 149.771C72.1013 149.281 75.7176 147.854 78.1462 146.354C78.2952 146.262 78.4442 146.171 78.5925 146.081C81.3227 144.42 84.4058 142.544 82.3002 135.307C85.1363 133.786 87.944 131.832 89.3573 129.565C91.01 126.916 89.8402 123.085 89.2413 121.52C92.6897 119.07 94.2214 116.308 92.0131 108.206ZM86.0561 90.759C85.5932 90.8929 85.1831 90.8031 84.726 90.4676C81.8833 88.3817 84.6942 83.3635 85.371 82.2484C87.051 81.327 88.1908 81.4932 88.6223 81.6185C89.6875 81.928 90.4659 82.9481 90.8187 84.4603C89.8616 86.7545 87.8537 90.2389 86.0561 90.759ZM77.3291 144.004C77.176 144.097 77.0223 144.191 76.8686 144.286C75.4938 145.136 73.6406 145.984 72.1374 146.618C73.2628 143.727 74.0702 141.018 74.6577 138.596C75.6974 138.242 77.7764 137.49 80.0892 136.411C81.48 141.478 79.7986 142.503 77.3291 144.004ZM87.295 128.279C86.1116 130.178 83.3388 132.193 79.276 134.107C77.7796 134.812 76.3583 135.383 75.272 135.791C75.8319 132.928 76.0797 130.638 76.239 129.165L76.3092 128.509C76.3271 128.342 76.3449 128.18 76.3621 128.018C78.0839 127.434 82.3879 125.85 86.2705 123.419C86.5697 123.232 86.8594 123.055 87.1439 122.88C87.6607 124.426 88.1769 126.865 87.295 128.279ZM85.9502 120.76C85.6363 120.953 85.3123 121.151 84.9811 121.359C81.995 123.229 78.6615 124.593 76.6698 125.328C77.2582 120.664 78.1174 117.376 81.6664 111.213L89.9423 109.899C91.7487 117.205 89.8673 118.359 85.9502 120.76Z" fill="#021C5E"/>
<path d="M206.062 30.4683L154.774 37.0953C150.594 37.6668 147.615 41.54 148.165 45.7501L163.597 169.326C164.145 173.536 168.018 176.514 172.229 175.965L223.649 169.748C227.859 169.199 230.837 165.326 230.288 161.116L214.723 37.1304C214.174 32.9198 210.302 29.9416 206.062 30.4683Z" fill="white"/>
<path d="M223.47 155.451L207.905 31.4651C207.355 27.2544 203.483 24.2756 199.243 24.8024L145.864 31.8491C141.683 32.4206 138.705 36.2927 139.254 40.5033L154.686 164.079C155.235 168.289 159.108 171.268 163.318 170.718L216.831 164.083C221.041 163.534 224.02 159.661 223.47 155.451ZM216.538 161.842L163.026 168.478C160.051 168.866 157.314 166.761 156.926 163.786L141.495 40.2109C141.106 37.2358 143.211 34.4998 146.186 34.1117L156.574 32.7716L156.908 35.3299C157.125 36.9904 158.646 38.1607 160.306 37.9443L186.895 34.5884C188.555 34.372 189.725 32.8499 189.509 31.1894L189.175 28.6311L199.565 27.0655C202.54 26.6774 205.276 28.7824 205.664 31.7575L221.23 155.743C221.618 158.718 219.513 161.454 216.538 161.842Z" fill="#021C5E"/>
<path d="M206.041 155.56L172.732 159.676C172.048 159.76 171.562 160.384 171.646 161.069C171.731 161.753 172.354 162.239 173.039 162.155L206.347 158.039C207.032 157.955 207.518 157.332 207.433 156.647C207.349 155.962 206.726 155.476 206.041 155.56Z" fill="#021C5E"/>
<path d="M205.3 109.334L161.564 114.738L155.86 76.9145L199.597 71.5101L205.3 109.334Z" fill="#D7EFFC"/>
<path d="M157.403 96.4656C156.75 96.4552 156.186 95.9672 156.099 95.3012C156.004 94.569 156.521 93.898 157.254 93.8034L204.624 87.6505C205.359 87.5571 206.027 88.0724 206.122 88.8041C206.217 89.5363 205.7 90.2073 204.968 90.3024L157.597 96.4547C157.531 96.463 157.467 96.4667 157.403 96.4656Z" fill="#52B7F6"/>
<path d="M175.378 112.9L166.504 114.072C165.575 114.194 164.652 113.949 163.908 113.378C163.163 112.807 162.686 111.981 162.563 111.051L161.46 102.703C161.372 102.038 160.763 101.568 160.096 101.658C159.43 101.746 158.962 102.357 159.05 103.022L160.154 111.369C160.361 112.943 161.17 114.342 162.429 115.307C163.452 116.091 164.672 116.513 165.937 116.533C166.231 116.538 166.526 116.521 166.823 116.482L175.697 115.309C176.362 115.221 176.83 114.61 176.742 113.945C176.654 113.28 176.044 112.81 175.378 112.9Z" fill="#021C5E"/>
<path d="M205.288 105.115L204.286 97.5332C204.198 96.8677 203.588 96.3994 202.922 96.4875C202.256 96.5755 201.788 97.1866 201.876 97.8521L202.878 105.434C203.001 106.364 202.754 107.287 202.184 108.031C201.613 108.775 200.787 109.253 199.857 109.376L192.086 110.403C191.421 110.491 190.953 111.101 191.041 111.767C191.121 112.372 191.633 112.813 192.225 112.823C192.284 112.824 192.344 112.82 192.405 112.812L200.175 111.785C201.749 111.578 203.147 110.769 204.113 109.509C205.079 108.249 205.495 106.689 205.288 105.115Z" fill="#021C5E"/>
<path d="M197.203 72.5219C197.947 73.0928 198.424 73.9187 198.547 74.8488L199.869 84.8471C199.949 85.4517 200.461 85.8938 201.053 85.9033C201.112 85.9043 201.172 85.9006 201.233 85.8928C201.899 85.8047 202.367 85.1943 202.279 84.5288L200.957 74.5304C200.749 72.9565 199.941 71.5582 198.681 70.593C197.422 69.6272 195.862 69.2104 194.288 69.4182L186.919 70.392C186.254 70.48 185.785 71.0905 185.873 71.756C185.961 72.4215 186.571 72.8897 187.237 72.8017L194.607 71.8274C195.537 71.7044 196.458 71.951 197.203 72.5219Z" fill="#021C5E"/>
<path d="M159.549 90.4288L158.232 80.4656C158.109 79.5356 158.356 78.6132 158.926 77.8688C159.497 77.1245 160.324 76.6471 161.253 76.5241L167.919 75.6431C168.584 75.555 169.051 74.944 168.963 74.2785C168.876 73.6136 168.267 73.1447 167.6 73.2334L160.935 74.1144C159.361 74.3229 157.963 75.131 156.998 76.3906C156.032 77.6502 155.615 79.2106 155.823 80.7839L157.139 90.7477C157.22 91.3529 157.731 91.7945 158.323 91.804C158.383 91.8049 158.443 91.8018 158.503 91.7934C159.169 91.7054 159.637 91.0943 159.549 90.4288Z" fill="#021C5E"/>
<path d="M251.035 141.968C251.035 141.968 248.816 134.765 247.389 124.99C245.962 115.216 240.126 104.871 234.236 97.9422C228.346 91.0137 223.552 88.5201 223.59 75.6851C223.59 75.6851 223.431 70.0153 220.762 70.1391C218.093 70.2634 215.264 75.1355 214.546 83.5417C213.829 91.9485 219.031 100.199 220.354 106.055C221.677 111.91 217.633 119.847 217.989 123.686C218.344 127.526 221.096 148.24 221.836 154.086C222.576 159.932 220.568 161.74 216.566 163.064L205.446 164.394C205.446 164.394 206.366 166.537 213.76 170.546C221.155 174.556 223.915 174.276 230.09 178.509C236.264 182.742 245.073 189.531 252.316 197.916L272.353 169.147C260.436 158.621 255.911 156.181 251.035 141.968Z" fill="white"/>
<path d="M144.664 75.1011C144.664 75.1011 135.192 67.3501 132.553 73.3823C129.914 79.415 142.4 87.046 146.321 89.2277L144.664 75.1011Z" fill="white"/>
<path d="M153.545 135.301C153.545 135.301 152.993 135.477 152.161 135.815C156.651 133.575 155.731 129.55 152.1 124.007L151.292 116.199C151.292 116.199 151.29 116.2 151.284 116.202C153.694 114.226 152.873 110.452 149.651 105.532L148.559 96.7893C148.559 96.7893 138.543 100.839 139.922 107.586C141.162 113.649 145.045 117.715 148.701 117.303C145.582 118.849 140.869 121.994 141.806 126.577C143.133 133.065 147.542 137.4 151.354 136.156C148.357 137.484 143.457 140.297 144.479 144.174C145.931 149.685 148.146 152.607 151.309 151.984C154.472 151.361 155.347 148.645 154.799 146.759L153.545 135.301Z" fill="white"/>
<path d="M147.806 91.4447L145.814 74.4723L145.434 74.1614C144.784 73.6294 138.962 68.995 134.712 70.0175C133.24 70.3724 132.109 71.3671 131.44 72.8955C130.077 76.0113 131.667 79.6317 136.167 83.6556C139.676 86.7933 144.024 89.3399 145.731 90.2895L147.806 91.4447ZM133.667 73.8697C134.033 73.0316 134.546 72.5585 135.28 72.381C135.54 72.3186 135.818 72.2927 136.11 72.2973C138.541 72.3362 141.927 74.5264 143.516 75.7439L144.832 86.9558C137.898 82.7435 132.135 77.3713 133.667 73.8697Z" fill="#021C5E"/>
<path d="M154.461 145.591C153.816 145.778 153.446 146.453 153.633 147.097C153.845 147.83 153.726 148.698 153.32 149.365C152.874 150.096 152.099 150.589 151.074 150.791C148.806 151.238 146.984 148.907 145.655 143.864C144.867 140.873 149.2 138.45 151.892 137.258C152.031 137.208 152.17 137.154 152.308 137.093C152.392 137.054 152.473 137.014 152.556 136.975C153.345 136.648 153.883 136.468 153.914 136.458C154.367 136.313 154.67 135.929 154.74 135.49C155.438 134.807 155.921 134.02 156.18 133.133C156.893 130.684 155.949 127.664 153.117 123.341C152.749 122.779 151.996 122.622 151.434 122.99C150.873 123.358 150.716 124.111 151.084 124.673C153.426 128.248 154.33 130.794 153.846 132.453C153.583 133.356 152.87 134.092 151.676 134.699C151.441 134.795 151.184 134.904 150.912 135.024C150.064 135.28 149.159 135.167 148.215 134.684C145.833 133.465 143.785 130.188 142.997 126.333C142.535 124.069 143.774 121.9 146.683 119.886C147.485 119.33 148.311 118.862 149.057 118.485C149.505 118.416 149.949 118.294 150.383 118.117C152.079 117.427 153.177 116.311 153.648 114.8C154.413 112.344 153.439 109.094 150.668 104.865C150.3 104.304 149.547 104.147 148.985 104.515C148.424 104.882 148.267 105.636 148.635 106.197C151.518 110.599 151.69 112.913 151.328 114.078C151.201 114.483 150.98 114.832 150.662 115.133C150.261 115.278 149.412 115.606 148.368 116.112C147.672 116.151 146.951 115.976 146.212 115.581C143.847 114.316 141.894 111.159 141.113 107.341C139.954 101.669 148.926 97.9529 149.016 97.9158C149.638 97.664 149.938 96.9557 149.686 96.3337C149.435 95.7111 148.726 95.4107 148.104 95.6624C147.996 95.7062 145.409 96.7635 142.967 98.7062C139.535 101.438 138.07 104.592 138.732 107.829C139.667 112.404 142.035 116.103 145.066 117.724C145.156 117.772 145.247 117.816 145.338 117.86C141.58 120.449 139.947 123.547 140.616 126.82C141.56 131.44 144.048 135.282 147.107 136.848C147.183 136.886 147.259 136.921 147.335 136.956C143.126 139.773 142.805 142.588 143.304 144.484C144.833 150.283 147.201 153.237 150.355 153.287C150.739 153.293 151.136 153.256 151.544 153.176C153.706 152.75 154.832 151.556 155.396 150.629C156.156 149.381 156.369 147.807 155.967 146.42C155.78 145.775 155.105 145.404 154.461 145.591Z" fill="#021C5E"/>
<path d="M273.157 168.236C271.621 166.879 270.177 165.63 268.904 164.528C260.014 156.839 256.332 153.654 252.191 141.594C252.071 141.199 249.954 134.147 248.591 124.815C247.049 114.255 240.643 103.603 235.161 97.1557C234.128 95.9395 233.144 94.8759 232.193 93.8479C227.726 89.0192 224.775 85.829 224.806 75.6894L224.805 75.6514C224.793 75.219 224.635 71.3797 222.857 69.7299C222.25 69.1665 221.504 68.8894 220.705 68.9256C217.024 69.0963 214.062 74.9288 213.336 83.4388C212.83 89.3567 215.045 95.0151 217 100.007C217.901 102.309 218.753 104.483 219.169 106.323C219.887 109.499 218.838 113.509 217.913 117.047C217.215 119.715 216.613 122.019 216.778 123.799C217.037 126.598 218.545 138.185 219.647 146.644C220.066 149.866 220.426 152.622 220.63 154.239C221.268 159.278 219.811 160.692 216.299 161.872L203.689 163.38L204.33 164.874C204.511 165.296 205.79 167.607 213.181 171.615C216.473 173.4 218.887 174.361 221.017 175.208C223.71 176.279 226.037 177.204 229.402 179.512C235.455 183.661 244.182 190.36 251.396 198.71C251.632 198.983 251.962 199.125 252.297 199.131C252.585 199.135 252.875 199.038 253.11 198.835C253.618 198.397 253.674 197.629 253.235 197.121C245.852 188.574 236.947 181.737 230.776 177.507C227.187 175.046 224.745 174.074 221.917 172.949C219.849 172.127 217.505 171.195 214.339 169.479C211.007 167.671 209.058 166.27 207.942 165.32L216.832 164.256L216.948 164.218C221.33 162.769 223.878 160.544 223.042 153.934C222.836 152.315 222.477 149.556 222.057 146.331C220.958 137.89 219.453 126.329 219.198 123.575C219.073 122.22 219.651 120.006 220.264 117.662C221.259 113.856 222.388 109.54 221.539 105.788C221.083 103.768 220.199 101.511 219.264 99.1208C217.406 94.3759 215.301 88.9985 215.758 83.6458C216.175 78.7567 217.303 75.3749 218.49 73.4133C218.222 76.2312 218.269 80.0641 220.095 81.9916C220.65 82.5769 221.576 83.2091 222.999 83.2319C223.025 83.2323 223.054 83.2298 223.081 83.2297C224.33 88.9222 227.116 91.9385 230.409 95.4986C231.343 96.5082 232.309 97.5522 233.31 98.73C238.573 104.92 244.719 115.116 246.186 125.166C247.61 134.921 249.851 142.253 249.873 142.326L249.885 142.363C254.241 155.06 258.338 158.603 267.314 166.367C268.645 167.518 270.021 168.709 271.548 170.058C272.051 170.502 272.819 170.455 273.263 169.952C273.708 169.449 273.661 168.681 273.157 168.236ZM221.861 80.3201C220.472 78.8558 220.679 74.4769 221.194 71.504C221.197 71.5064 221.2 71.5082 221.203 71.5111C221.942 72.1946 222.332 74.3678 222.375 75.7025C222.37 77.5861 222.471 79.2564 222.66 80.7628C222.256 80.681 222.019 80.4874 221.861 80.3201Z" fill="#021C5E"/>
</svg>
