<svg width="24" height="24" viewBox="0 0 24 24" fill="none" xmlns="http://www.w3.org/2000/svg">
<path d="M17.321 11.9506V6.35558C17.321 6.28493 17.3071 6.21496 17.2801 6.14968C17.2531 6.08441 17.2134 6.02511 17.1634 5.97518L14.3458 3.15753C14.2452 3.05679 14.1087 3.00013 13.9663 3H3.53704C3.39461 3 3.25801 3.05658 3.15729 3.15729C3.05658 3.25801 3 3.39461 3 3.53704V20.3642C3 20.5066 3.05658 20.6432 3.15729 20.7439C3.25801 20.8446 3.39461 20.9012 3.53704 20.9012H11.0555M6.58024 10.1605H13.7407M6.58024 6.58024H10.1605M6.58024 13.7407H9.26542" stroke="black" stroke-width="1.5" stroke-linecap="round" stroke-linejoin="round"/>
<path d="M13.7405 3V6.0432C13.7405 6.18564 13.7971 6.32223 13.8978 6.42295C13.9985 6.52366 14.1351 6.58024 14.2775 6.58024H17.3207M17.3136 14.7477L19.6013 15.3286C19.8394 15.3894 20.0068 15.606 19.9996 15.8513C19.8457 21.005 16.8732 21.7963 16.8732 21.7963C16.8732 21.7963 13.9007 21.005 13.7467 15.8513C13.744 15.7319 13.7819 15.6151 13.8543 15.5201C13.9267 15.4251 14.0292 15.3576 14.145 15.3286L16.4328 14.7477C16.7219 14.6743 17.0245 14.6743 17.3136 14.7477Z" stroke="black" stroke-width="1.5" stroke-linecap="round" stroke-linejoin="round"/>
</svg>
