<svg width="24" height="23" viewBox="0 0 24 23" fill="none" xmlns="http://www.w3.org/2000/svg">
<path d="M20.724 19.3232L21.675 17.4199C21.74 17.2912 21.7805 17.1502 21.7964 17.0069L23.022 5.97653C23.0759 5.4912 22.8369 5.01934 22.4116 4.77668C21.9864 4.53401 21.4593 4.56833 21.0696 4.86124L17.2041 7.75977L13.0199 1.48474C12.5652 0.802084 11.4352 0.802084 10.9805 1.48474L6.79637 7.75977L2.93085 4.86124C2.53989 4.5671 2.01166 4.53524 1.5876 4.7779C1.16355 5.01934 0.923333 5.4912 0.977259 5.97653L2.20285 17.0069C2.21878 17.1502 2.25923 17.29 2.32418 17.4199L3.27647 19.3232L2.32541 21.2266C2.13544 21.6065 2.15628 22.0575 2.37934 22.4191C2.60239 22.7806 2.99581 23 3.42109 23H20.5794C21.0047 23 21.3981 22.7794 21.6223 22.4178C21.8466 22.0563 21.8662 21.6053 21.6763 21.2253L20.724 19.3232ZM12.0002 18.0976C9.9731 18.0976 8.32345 16.448 8.32345 14.4209C8.32345 12.3937 9.9731 10.7441 12.0002 10.7441C14.0274 10.7441 15.677 12.3937 15.677 14.4209C15.677 16.448 14.0274 18.0976 12.0002 18.0976Z" fill="#4B68FF"/>
</svg>
