<svg width="30" height="25" viewBox="0 0 30 25" fill="none" xmlns="http://www.w3.org/2000/svg">
<path d="M26.3794 14.4828C26.1051 14.4828 25.8419 14.5917 25.6479 14.7857C25.4539 14.9798 25.3449 15.2429 25.3449 15.5172V21.7241C25.3449 21.9985 25.2359 22.2616 25.0419 22.4556C24.8479 22.6496 24.5848 22.7586 24.3105 22.7586H5.68976C5.4154 22.7586 5.15227 22.6496 4.95827 22.4556C4.76427 22.2616 4.65528 21.9985 4.65528 21.7241V15.5172C4.65528 15.2429 4.54629 14.9798 4.35228 14.7857C4.15828 14.5917 3.89516 14.4828 3.62079 14.4828C3.34643 14.4828 3.08331 14.5917 2.8893 14.7857C2.6953 14.9798 2.58631 15.2429 2.58631 15.5172V21.7241C2.58631 22.5472 2.91328 23.3366 3.49529 23.9186C4.0773 24.5006 4.86667 24.8276 5.68976 24.8276H24.3105C25.1335 24.8276 25.9229 24.5006 26.5049 23.9186C27.0869 23.3366 27.4139 22.5472 27.4139 21.7241V15.5172C27.4139 15.2429 27.3049 14.9798 27.1109 14.7857C26.9169 14.5917 26.6538 14.4828 26.3794 14.4828Z" fill="#F95658"/>
<path d="M28.9655 10.3448H27.4138V3.10345C27.4138 2.28036 27.0868 1.49099 26.5048 0.908979C25.9228 0.32697 25.1334 0 24.3103 0H5.68965C4.86657 0 4.0772 0.32697 3.49519 0.908979C2.91318 1.49099 2.58621 2.28036 2.58621 3.10345V10.3448H1.03448C0.760121 10.3448 0.496996 10.4538 0.302993 10.6478C0.10899 10.8418 0 11.1049 0 11.3793C0 11.6537 0.10899 11.9168 0.302993 12.1108C0.496996 12.3048 0.760121 12.4138 1.03448 12.4138H28.9655C29.2399 12.4138 29.503 12.3048 29.697 12.1108C29.891 11.9168 30 11.6537 30 11.3793C30 11.1049 29.891 10.8418 29.697 10.6478C29.503 10.4538 29.2399 10.3448 28.9655 10.3448ZM4.65517 3.10345C4.65517 2.82909 4.76416 2.56596 4.95817 2.37196C5.15217 2.17796 5.41529 2.06897 5.68965 2.06897H24.3103C24.5847 2.06897 24.8478 2.17796 25.0418 2.37196C25.2358 2.56596 25.3448 2.82909 25.3448 3.10345V10.3448H4.65517V3.10345Z" fill="#F95658"/>
</svg>
