<svg width="24" height="24" viewBox="0 0 24 24" fill="none" xmlns="http://www.w3.org/2000/svg">
<path d="M8.79541 5.23761C9.99903 3.0792 10.6004 2 11.5 2C12.3996 2 13.001 3.0792 14.2046 5.23761L14.5162 5.79621C14.8582 6.40991 15.0292 6.71676 15.2952 6.91912C15.5612 7.12147 15.8936 7.19652 16.5586 7.34662L17.1628 7.48342C19.4998 8.01257 20.6673 8.27667 20.9456 9.17062C21.223 10.0636 20.4269 10.9956 18.8338 12.8585L18.4215 13.3402C17.9693 13.8693 17.7423 14.1344 17.6407 14.4612C17.539 14.7889 17.5732 15.1423 17.6416 15.8482L17.7043 16.4913C17.9446 18.9775 18.0653 20.2201 17.3376 20.7721C16.6099 21.325 15.5156 20.8205 13.3287 19.8135L12.7616 19.5532C12.1403 19.2663 11.8296 19.1238 11.5 19.1238C11.1704 19.1238 10.8597 19.2663 10.2375 19.5532L9.67224 19.8135C7.48444 20.8205 6.39007 21.324 5.66334 20.773C4.9347 20.2201 5.05535 18.9775 5.2957 16.4913L5.35839 15.8491C5.42679 15.1423 5.46099 14.7889 5.35839 14.4621C5.2577 14.1344 5.03065 13.8693 4.57846 13.3411L4.16617 12.8585C2.57306 10.9965 1.77698 10.0646 2.05437 9.17062C2.33272 8.27667 3.50119 8.01162 5.83813 7.48342L6.44232 7.34662C7.10635 7.19652 7.4379 7.12147 7.70484 6.91912C7.97083 6.71676 8.14183 6.40991 8.48382 5.79621L8.79541 5.23761Z" stroke="black" stroke-width="1.5"/>
</svg>
