<svg width="18" height="18" viewBox="0 0 18 18" fill="none" xmlns="http://www.w3.org/2000/svg">
<path d="M3.69977 14.4999H3.59977V14.5999V16.6339C3.59977 16.8585 3.68619 17.0341 3.82105 17.1524C3.95397 17.2689 4.12814 17.325 4.29886 17.325C4.46958 17.325 4.64376 17.2689 4.77668 17.1524C4.91153 17.0341 4.99796 16.8585 4.99796 16.6339V14.5999V14.4999H4.89796H3.69977ZM4.99796 12.8023V5.23112H12.8023H12.9023V5.13112V3.93293V3.83293H12.8023H4.29907C3.91302 3.83293 3.59984 4.14611 3.59984 4.53216V12.7609L3.45894 12.9023H3.69977H4.89796H4.99796V12.8023ZM14.5996 3.83293H14.4996V3.93293V5.13112V5.23112H14.5996H16.4007C16.6253 5.23112 16.8009 5.1447 16.9192 5.00984C17.0358 4.87692 17.0918 4.70275 17.0918 4.53203C17.0918 4.36131 17.0358 4.18713 16.9192 4.05421C16.8009 3.91936 16.6253 3.83293 16.4007 3.83293H14.5996ZM17.1 11.1644C17.1 10.9397 17.0136 10.7641 16.8787 10.6458C16.7457 10.5293 16.5715 10.4733 16.4008 10.4733C16.23 10.4733 16.0558 10.5293 15.9229 10.6458C15.788 10.7641 15.7015 10.9397 15.7015 11.1644V15.9346H10.9313C10.7066 15.9346 10.531 16.0211 10.4127 16.156C10.2962 16.2889 10.2402 16.4631 10.2402 16.6339C10.2402 16.8046 10.2962 16.9788 10.4127 17.1118C10.531 17.2466 10.7066 17.3331 10.9313 17.3331H16.4008C16.7868 17.3331 17.1 17.0199 17.1 16.6339V11.1644ZM0.9 7.06874C0.9 7.29339 0.986446 7.46898 1.12133 7.58725C1.25428 7.70382 1.42848 7.75984 1.59923 7.75984C1.76998 7.75984 1.94419 7.70382 2.07713 7.58725C2.21202 7.46898 2.29846 7.29339 2.29846 7.06874V2.29846H7.06874C7.29339 2.29846 7.46898 2.21202 7.58725 2.07713C7.70382 1.94419 7.75984 1.76998 7.75984 1.59923C7.75984 1.42848 7.70382 1.25428 7.58725 1.12133C7.46898 0.986446 7.29339 0.9 7.06874 0.9H1.59923C1.21318 0.9 0.9 1.21318 0.9 1.59923V7.06874ZM14.3999 1.59923C14.3999 1.37459 14.3135 1.199 14.1786 1.08072C14.0457 0.96415 13.8715 0.908129 13.7008 0.908129C13.5301 0.908129 13.3559 0.96415 13.223 1.08072C13.0881 1.199 13.0017 1.37459 13.0017 1.59923L13.0018 13.0016H1.5993C1.37466 13.0016 1.19907 13.088 1.08079 13.2229C0.964219 13.3558 0.908198 13.53 0.908198 13.7007C0.908198 13.8714 0.964219 14.0456 1.08079 14.1785C1.19907 14.3134 1.37466 14.3998 1.5993 14.3998H13.7006C14.0867 14.3998 14.3999 14.0866 14.3999 13.7006V1.59923Z" fill="#BEBEBE" stroke="#BEBEBE" stroke-width="0.2"/>
</svg>
