<svg width="17" height="18" viewBox="0 0 17 18" fill="none" xmlns="http://www.w3.org/2000/svg">
<path d="M0.0051075 11.3891C-0.0305324 10.4641 0.120635 9.54137 0.449545 8.6763C0.778455 7.81123 1.27834 7.02161 1.91922 6.35478C2.5601 5.68794 3.32879 5.15762 4.17919 4.79561C5.0296 4.43361 5.94421 4.24736 6.8682 4.24805H14.3065L11.7312 1.66799C11.6274 1.56422 11.5481 1.43844 11.4992 1.2999C11.4503 1.16136 11.4331 1.0136 11.4487 0.867508C11.4644 0.721412 11.5126 0.580701 11.5898 0.455743C11.667 0.330784 11.7711 0.224762 11.8946 0.145486C12.0908 0.0259013 12.3222 -0.0221421 12.5497 0.00947699C12.7771 0.0410961 12.9867 0.150438 13.143 0.319018L16.251 3.43278C16.7306 3.91352 17 4.56538 17 5.24505C17 5.92472 16.7306 6.57657 16.251 7.05731L13.1169 10.1973C13.0237 10.2928 12.9116 10.3678 12.7878 10.4174C12.664 10.467 12.5312 10.4902 12.3979 10.4854C12.2647 10.4815 12.1337 10.4505 12.0129 10.3942C11.8921 10.3379 11.784 10.2575 11.6952 10.158C11.5249 9.95664 11.4379 9.69771 11.4518 9.43416C11.4658 9.17062 11.5798 8.92238 11.7704 8.74025L14.3065 6.21257H7.0022C5.72498 6.1924 4.48909 6.66592 3.55124 7.53478C2.6134 8.40364 2.04567 9.60105 1.96599 10.8783C1.93275 11.5436 2.03495 12.2088 2.26638 12.8333C2.49781 13.4578 2.85363 14.0286 3.3122 14.511C3.77076 14.9934 4.32249 15.3772 4.93382 15.6393C5.54514 15.9013 6.20328 16.036 6.8682 16.0352H11.4436C11.581 16.0345 11.7171 16.0627 11.8429 16.1181C11.9687 16.1735 12.0815 16.2548 12.174 16.3567C12.2664 16.4586 12.3365 16.5788 12.3796 16.7095C12.4226 16.8403 12.4378 16.9786 12.424 17.1156C12.3903 17.3649 12.266 17.593 12.0748 17.7561C11.8836 17.9193 11.6391 18.006 11.388 17.9997H7.04468C3.30266 17.9997 0.148906 15.0333 0.0051075 11.3891Z" fill="#BEBEBE"/>
</svg>
