<svg width="18" height="19" viewBox="0 0 18 19" fill="none" xmlns="http://www.w3.org/2000/svg">
<path d="M8.70801 11.8747C8.42514 11.8747 8.16382 12.0256 8.02245 12.2705C7.88108 12.5155 7.88108 12.8173 8.02245 13.0622C8.16382 13.3071 8.42517 13.458 8.70801 13.458C9.75775 13.458 10.7646 13.0409 11.5069 12.2986C12.2492 11.5563 12.6663 10.5495 12.6663 9.49975C12.6663 8.45 12.2492 7.4432 11.5069 6.70088C10.7646 5.95857 9.75775 5.5415 8.70801 5.5415C7.65826 5.5415 6.65145 5.95857 5.90913 6.70088C5.16682 7.4432 4.74976 8.45 4.74976 9.49975C4.74976 9.78262 4.90065 10.0439 5.14555 10.1853C5.39045 10.3267 5.69224 10.3267 5.93727 10.1853C6.18217 10.0439 6.33306 9.78259 6.33306 9.49975C6.33306 8.86983 6.58321 8.26584 7.02872 7.82047C7.47409 7.37499 8.07804 7.1248 8.70801 7.1248C9.33797 7.1248 9.94192 7.37495 10.3873 7.82047C10.8328 8.26584 11.083 8.86979 11.083 9.49975C11.083 10.1297 10.8328 10.7337 10.3873 11.179C9.94192 11.6245 9.33797 11.8747 8.70801 11.8747Z" fill="#BEBEBE"/>
<path d="M17.4161 13.4581V5.54155C17.4161 4.70177 17.0826 3.89623 16.4887 3.30249C15.8948 2.70858 15.0894 2.37492 14.2496 2.37492H13.0899L12.2112 1.05693C11.7706 0.396746 11.0296 0.000143667 10.2359 2.30052e-06H7.18023C6.38519 -0.00110212 5.64231 0.395509 5.2011 1.05693L4.32626 2.37492H3.16649C2.32671 2.37492 1.52131 2.70859 0.927432 3.30249C0.333518 3.89626 0 4.7018 0 5.54155V13.4581C0 14.2978 0.333535 15.1034 0.927432 15.6971C1.52135 16.291 2.32674 16.6247 3.16649 16.6247H5.21298L4.18974 17.6479V17.6478C3.98956 17.848 3.91142 18.1395 3.98473 18.4129C4.0579 18.6862 4.27146 18.8998 4.54482 18.973C4.81817 19.0463 5.10986 18.9681 5.30989 18.7679L7.68481 16.393C7.83349 16.2446 7.91701 16.0431 7.91701 15.8329C7.91701 15.6228 7.83349 15.4214 7.68481 15.2728L5.30989 12.8979C5.10985 12.6978 4.81815 12.6196 4.54482 12.6929C4.27147 12.7661 4.05792 12.9797 3.98473 13.253C3.91142 13.5264 3.98956 13.8181 4.18974 14.0181L5.21298 15.0413H3.16649C2.74653 15.0413 2.34385 14.8744 2.04702 14.5776C1.75007 14.2807 1.58316 13.878 1.58316 13.458V5.5415C1.58316 5.12153 1.75007 4.71885 2.04702 4.42188C2.34383 4.12507 2.74653 3.95816 3.16649 3.95816H4.74983C5.01462 3.9583 5.26186 3.82618 5.40888 3.60585L6.53097 1.93554C6.67606 1.71811 6.91891 1.5864 7.18023 1.58323H10.2359C10.5007 1.58309 10.7481 1.71521 10.8949 1.93554L12.0072 3.60599V3.60585C12.1543 3.82619 12.4015 3.9583 12.6663 3.95817H14.2496C14.6696 3.95817 15.0723 4.12507 15.3691 4.42188C15.6661 4.71883 15.833 5.12154 15.833 5.5415V13.458C15.833 13.878 15.6661 14.2806 15.3691 14.5776C15.0723 14.8744 14.6696 15.0413 14.2496 15.0413H10.3151C10.0322 15.0413 9.77087 15.1922 9.6295 15.4371C9.488 15.682 9.488 15.9838 9.6295 16.2287C9.77087 16.4737 10.0322 16.6246 10.3151 16.6246H14.2496C15.0894 16.6246 15.8948 16.291 16.4887 15.6971C17.0826 15.1033 17.4161 14.2978 17.4161 13.458V13.4581Z" fill="#BEBEBE"/>
</svg>
