<svg width="11" height="9" viewBox="0 0 11 9" fill="none" xmlns="http://www.w3.org/2000/svg">
<path fill-rule="evenodd" clip-rule="evenodd" d="M7.74765 8.87706C8.22058 8.59282 8.70756 8.17435 9.02849 7.77644C9.73879 6.89574 10.1056 5.86125 10.1056 4.73865C10.1056 3.61219 9.7372 2.56541 9.0396 1.70973L8.875 1.5078H9.18426C9.53708 1.5078 9.62113 1.48205 9.72868 1.34104C9.78503 1.2672 9.79462 1.23088 9.79462 1.0917C9.79462 0.952532 9.78503 0.916209 9.72868 0.842365C9.60141 0.675462 9.57974 0.671693 8.57196 0.640804C8.07324 0.625531 7.6227 0.620341 7.57076 0.629275C7.45881 0.648538 7.36277 0.715016 7.30542 0.812896C7.26978 0.873744 7.2596 1.02033 7.2341 1.83906C7.21774 2.36439 7.21167 2.82334 7.22061 2.85893C7.24545 2.95796 7.35807 3.0765 7.47746 3.12932C7.62231 3.1934 7.77096 3.17154 7.88776 3.06899C8.04404 2.93177 8.05422 2.89217 8.06844 2.36608L8.08129 1.89043L8.24315 2.07237C8.69349 2.57863 9.01775 3.20165 9.16588 3.84527C9.43012 4.99335 9.1693 6.19212 8.44691 7.14956C8.18482 7.49695 7.72083 7.90905 7.34309 8.12997C7.06377 8.29333 6.97166 8.43316 7.00348 8.64547C7.02262 8.77306 7.13333 8.91399 7.25404 8.96444C7.40959 9.02942 7.52942 9.0082 7.74765 8.87706ZM3.15052 8.79551C3.19553 8.76515 3.25498 8.70184 3.28264 8.65477C3.32944 8.5751 3.33492 8.50402 3.36196 7.62684C3.39395 6.58998 3.38989 6.54078 3.26217 6.41307C3.09777 6.24866 2.85837 6.24854 2.69408 6.41282C2.58649 6.52042 2.56656 6.61598 2.54441 7.13088L2.5252 7.57723L2.34202 7.36891C1.86341 6.82459 1.53017 6.13531 1.39579 5.41175C1.33551 5.0871 1.33416 4.38478 1.39322 4.06556C1.50953 3.43689 1.75841 2.85744 2.12653 2.35842C2.4128 1.9703 2.89029 1.54346 3.28526 1.32259C3.37119 1.27454 3.46846 1.20319 3.50138 1.16408C3.73718 0.883828 3.54815 0.469299 3.18454 0.469299C3.07549 0.469299 3.02826 0.487608 2.82682 0.60781C2.16151 1.00484 1.55834 1.61608 1.15409 2.30293C0.347063 3.67421 0.278114 5.37868 0.971573 6.81555C1.1281 7.13991 1.35325 7.49986 1.54794 7.73701C1.61427 7.81778 1.68454 7.90423 1.7041 7.92907C1.73839 7.97264 1.72999 7.97364 1.47157 7.95698C1.29987 7.94591 1.16797 7.94927 1.10472 7.96635C1.00716 7.99271 0.880521 8.10224 0.82704 8.20654C0.788515 8.28168 0.792946 8.47301 0.835094 8.55451C0.887473 8.65584 1.03205 8.77294 1.12342 8.78806C1.20402 8.8014 2.60619 8.85058 2.90707 8.85063C3.03423 8.85065 3.08612 8.8389 3.15052 8.79551ZM6.70808 6.40249C6.80006 6.37444 6.91581 6.26472 6.9584 6.16517C6.98566 6.10144 6.9921 5.8263 6.9921 4.72323V3.36006L6.93331 3.25973C6.90046 3.20368 6.83149 3.13522 6.777 3.1046L6.67949 3.0498H5.30361C3.7586 3.0498 3.81468 3.04356 3.69176 3.22926L3.62663 3.32765L3.62021 4.71237C3.61304 6.26636 3.60474 6.18874 3.79409 6.3401L3.88813 6.41527L5.26266 6.41968C6.01866 6.4221 6.66909 6.41437 6.70808 6.40249ZM4.47105 4.72641V3.88199H5.30324H6.13543V4.72641V5.57084H5.30324H4.47105V4.72641Z" fill="#BEBEBE"/>
</svg>
