<svg width="191" height="185" viewBox="0 0 191 185" fill="none" xmlns="http://www.w3.org/2000/svg">
<path d="M95.1953 177.846C140.355 177.846 176.965 141.236 176.965 96.076C176.965 50.9159 140.355 14.3064 95.1953 14.3064C50.0352 14.3064 13.4257 50.9159 13.4257 96.076C13.4257 141.236 50.0352 177.846 95.1953 177.846Z" fill="url(#paint0_linear_1_5568)"/>
<path d="M139.309 33.334H48.726C43.0798 33.334 38.5026 37.9111 38.5026 43.5573H149.533C149.533 37.9111 144.956 33.334 139.309 33.334Z" fill="url(#paint1_linear_1_5568)"/>
<path d="M38.5026 43.2778H149.533V127.84C149.533 131.6 148.039 135.206 145.381 137.864C142.722 140.523 139.116 142.016 135.357 142.016H52.6786C48.9189 142.016 45.3132 140.523 42.6547 137.864C39.9962 135.206 38.5026 131.6 38.5026 127.84V43.2778Z" fill="url(#paint2_linear_1_5568)"/>
<path d="M130.447 53.959H57.624C56.1074 53.959 54.8779 55.1871 54.8779 56.702C54.8779 58.217 56.1074 59.4451 57.624 59.4451H130.447C131.964 59.4451 133.193 58.217 133.193 56.702C133.193 55.1871 131.964 53.959 130.447 53.959Z" fill="url(#paint3_linear_1_5568)"/>
<path d="M130.447 77.2673H57.624C56.1074 77.2673 54.8779 78.4954 54.8779 80.0104C54.8779 81.5254 56.1074 82.7535 57.624 82.7535H130.447C131.964 82.7535 133.193 81.5254 133.193 80.0104C133.193 78.4954 131.964 77.2673 130.447 77.2673Z" fill="url(#paint4_linear_1_5568)"/>
<path d="M130.447 100.576H57.624C56.1074 100.576 54.8779 101.804 54.8779 103.319C54.8779 104.834 56.1074 106.062 57.624 106.062H130.447C131.964 106.062 133.193 104.834 133.193 103.319C133.193 101.804 131.964 100.576 130.447 100.576Z" fill="url(#paint5_linear_1_5568)"/>
<path d="M130.447 123.884H57.6241C56.1075 123.884 54.8781 125.112 54.8781 126.627C54.8781 128.142 56.1075 129.37 57.6241 129.37H130.447C131.964 129.37 133.194 128.142 133.194 126.627C133.194 125.112 131.964 123.884 130.447 123.884Z" fill="url(#paint6_linear_1_5568)"/>
<g filter="url(#filter0_d_1_5568)">
<path d="M57.1308 95.5764H18.3535C15.2382 95.5764 12.7128 98.1018 12.7128 101.217V156.643C12.7128 159.758 15.2382 162.284 18.3535 162.284H57.1308C60.2461 162.284 62.7715 159.758 62.7715 156.643V101.217C62.7715 98.1018 60.2461 95.5764 57.1308 95.5764Z" fill="url(#paint7_linear_1_5568)"/>
</g>
<g filter="url(#filter1_d_1_5568)">
<path d="M167.517 9H124.686C122.691 9 121.073 10.618 121.073 12.6138V32.7455C121.073 34.7413 122.691 36.3593 124.686 36.3593H167.517C169.513 36.3593 171.131 34.7413 171.131 32.7455V12.6138C171.131 10.618 169.513 9 167.517 9Z" fill="url(#paint8_linear_1_5568)"/>
</g>
<path d="M52.8037 123.304H22.6806C21.6662 123.304 20.8439 124.126 20.8439 125.141V125.147C20.8439 126.161 21.6662 126.983 22.6806 126.983H52.8037C53.8181 126.983 54.6404 126.161 54.6404 125.147V125.141C54.6404 124.126 53.8181 123.304 52.8037 123.304Z" fill="url(#paint9_linear_1_5568)"/>
<path d="M52.8208 149.193H22.9565C21.9509 149.193 21.1357 149.99 21.1357 150.972V150.978C21.1357 151.961 21.9509 152.757 22.9565 152.757H52.8208C53.8264 152.757 54.6417 151.961 54.6417 150.978V150.972C54.6417 149.99 53.8264 149.193 52.8208 149.193Z" fill="url(#paint10_linear_1_5568)"/>
<path d="M52.8208 135.648H22.9565C21.9509 135.648 21.1357 136.445 21.1357 137.427V137.433C21.1357 138.416 21.9509 139.212 22.9565 139.212H52.8208C53.8264 139.212 54.6417 138.416 54.6417 137.433V137.427C54.6417 136.445 53.8264 135.648 52.8208 135.648Z" fill="url(#paint11_linear_1_5568)"/>
<path d="M33.6946 104.135H24.8918C22.9419 104.135 21.3612 105.716 21.3612 107.666V110.109C21.3612 112.059 22.9419 113.64 24.8918 113.64H33.6946C35.6445 113.64 37.2252 112.059 37.2252 110.109V107.666C37.2252 105.716 35.6445 104.135 33.6946 104.135Z" fill="url(#paint12_linear_1_5568)"/>
<path d="M131.643 26.8314C133.938 26.8314 135.798 24.9713 135.798 22.6767C135.798 20.3821 133.938 18.522 131.643 18.522C129.349 18.522 127.489 20.3821 127.489 22.6767C127.489 24.9713 129.349 26.8314 131.643 26.8314Z" fill="#81D5E7"/>
<path d="M146.491 26.8314C148.785 26.8314 150.646 24.9713 150.646 22.6767C150.646 20.3821 148.785 18.522 146.491 18.522C144.196 18.522 142.336 20.3821 142.336 22.6767C142.336 24.9713 144.196 26.8314 146.491 26.8314Z" fill="#81D5E7"/>
<path d="M161.338 26.8314C163.633 26.8314 165.493 24.9713 165.493 22.6767C165.493 20.3821 163.633 18.522 161.338 18.522C159.044 18.522 157.184 20.3821 157.184 22.6767C157.184 24.9713 159.044 26.8314 161.338 26.8314Z" fill="#81D5E7"/>
<path d="M150.074 125.926L139.551 137.527L169.211 164.43L179.733 152.829L150.074 125.926Z" fill="url(#paint13_linear_1_5568)"/>
<path fill-rule="evenodd" clip-rule="evenodd" d="M161.194 106.726C161.194 130.994 141.52 150.668 117.251 150.668C92.9825 150.668 73.3088 130.994 73.3088 106.726C73.3088 82.4569 92.9825 62.7832 117.251 62.7832C141.52 62.7832 161.194 82.4569 161.194 106.726ZM154.453 106.726C154.453 127.272 137.797 143.928 117.251 143.928C96.7049 143.928 80.0489 127.272 80.0489 106.726C80.0489 86.1795 96.7049 69.5235 117.251 69.5235C137.797 69.5235 154.453 86.1795 154.453 106.726Z" fill="url(#paint14_linear_1_5568)"/>
<g filter="url(#filter2_b_1_5568)">
<path d="M117.251 143.928C137.798 143.928 154.454 127.272 154.454 106.726C154.454 86.1794 137.798 69.5234 117.251 69.5234C96.7052 69.5234 80.0492 86.1794 80.0492 106.726C80.0492 127.272 96.7052 143.928 117.251 143.928Z" fill="url(#paint15_linear_1_5568)" fill-opacity="0.2"/>
</g>
<path d="M126.191 106.726L136.83 96.0625C137.827 95.0076 138.373 93.6056 138.352 92.1545C138.332 90.7033 137.746 89.3174 136.72 88.2911C135.694 87.2649 134.308 86.6793 132.857 86.6587C131.406 86.6382 130.004 87.1843 128.949 88.181L118.286 98.8442L107.646 88.181C107.134 87.6392 106.519 87.2055 105.836 86.9057C105.154 86.6059 104.418 86.4459 103.673 86.4354C102.927 86.4248 102.187 86.5638 101.497 86.8442C100.806 87.1246 100.179 87.5407 99.6514 88.0678C99.1243 88.5949 98.7082 89.2224 98.4278 89.9131C98.1475 90.6038 98.0084 91.3437 98.019 92.0891C98.0296 92.8344 98.1895 93.5701 98.4893 94.2526C98.7892 94.9351 99.2228 95.5505 99.7646 96.0625L110.422 106.726L99.7646 117.389C99.2228 117.901 98.7892 118.516 98.4893 119.199C98.1895 119.881 98.0296 120.617 98.019 121.362C98.0084 122.108 98.1475 122.848 98.4278 123.538C98.7082 124.229 99.1243 124.856 99.6514 125.384C100.179 125.911 100.806 126.327 101.497 126.607C102.187 126.888 102.927 127.027 103.673 127.016C104.418 127.005 105.154 126.845 105.836 126.546C106.519 126.246 107.134 125.812 107.646 125.27L118.309 114.607L128.972 125.27C130.037 126.208 131.42 126.705 132.838 126.659C134.256 126.613 135.604 126.028 136.606 125.023C137.608 124.018 138.189 122.669 138.23 121.25C138.272 119.832 137.771 118.451 136.83 117.389L126.191 106.726Z" fill="url(#paint16_linear_1_5568)"/>
<g filter="url(#filter3_f_1_5568)">
<ellipse cx="118.482" cy="127.273" rx="26.1527" ry="3.86347" fill="#EC5575" fill-opacity="0.56"/>
</g>
<path d="M87.6704 155.366C88.188 153.221 91.2376 153.221 91.7551 155.366L92.3241 157.722C92.509 158.488 93.1072 159.087 93.8734 159.272L96.2302 159.841C98.3742 160.358 98.3742 163.408 96.2302 163.925L93.8734 164.494C93.1072 164.679 92.509 165.277 92.3241 166.044L91.7552 168.4C91.2376 170.544 88.188 170.544 87.6704 168.4L87.1015 166.044C86.9165 165.277 86.3183 164.679 85.5521 164.494L83.1954 163.925C81.0513 163.408 81.0513 160.358 83.1953 159.841L85.5521 159.272C86.3183 159.087 86.9165 158.488 87.1015 157.722L87.6704 155.366Z" fill="url(#paint17_linear_1_5568)"/>
<path d="M28.5002 18.4898C29.0177 16.3458 32.0674 16.3458 32.5849 18.4898L33.1538 20.8466C33.3388 21.6127 33.937 22.211 34.7032 22.3959L37.06 22.9648C39.204 23.4824 39.204 26.532 37.06 27.0496L34.7032 27.6185C33.937 27.8034 33.3388 28.4017 33.1538 29.1679L32.5849 31.5246C32.0674 33.6687 29.0177 33.6687 28.5002 31.5246L27.9313 29.1679C27.7463 28.4017 27.1481 27.8035 26.3819 27.6185L24.0251 27.0496C21.8811 26.532 21.8811 23.4824 24.0251 22.9648L26.3819 22.3959C27.1481 22.211 27.7463 21.6127 27.9313 20.8466L28.5002 18.4898Z" fill="url(#paint18_linear_1_5568)"/>
<path fill-rule="evenodd" clip-rule="evenodd" d="M91.9352 16.894C93.3139 16.894 94.4316 15.7764 94.4316 14.3977C94.4316 13.019 93.3139 11.9013 91.9352 11.9013C90.5565 11.9013 89.4389 13.019 89.4389 14.3977C89.4389 15.7764 90.5565 16.894 91.9352 16.894ZM91.9352 18.7663C94.3479 18.7663 96.3038 16.8104 96.3038 14.3977C96.3038 11.985 94.3479 10.0291 91.9352 10.0291C89.5225 10.0291 87.5666 11.985 87.5666 14.3977C87.5666 16.8104 89.5225 18.7663 91.9352 18.7663Z" fill="url(#paint19_linear_1_5568)"/>
<path d="M169.775 86.4775C169.442 85.1715 170.647 83.9947 171.945 84.3593L176.512 85.6429C177.81 86.0075 178.226 87.64 177.262 88.5814L173.866 91.8952C172.902 92.8366 171.28 92.3808 170.947 91.0748L169.775 86.4775Z" fill="url(#paint20_linear_1_5568)"/>
<path d="M22.3576 75.1295C23.664 74.7982 24.8392 76.0054 24.4729 77.3025L23.1835 81.8682C22.8172 83.1653 21.1841 83.5795 20.2439 82.6137L16.9346 79.2141C15.9944 78.2483 16.4523 76.627 17.7587 76.2957L22.3576 75.1295Z" fill="url(#paint21_linear_1_5568)"/>
<path d="M141.411 161.39C142.717 161.058 143.892 162.266 143.526 163.563L142.237 168.129C141.87 169.426 140.237 169.84 139.297 168.874L135.988 165.474C135.048 164.509 135.506 162.887 136.812 162.556L141.411 161.39Z" fill="url(#paint22_linear_1_5568)"/>
<path fill-rule="evenodd" clip-rule="evenodd" d="M175.344 53.2517C176.722 53.2517 177.84 52.134 177.84 50.7553C177.84 49.3766 176.722 48.259 175.344 48.259C173.965 48.259 172.847 49.3766 172.847 50.7553C172.847 52.134 173.965 53.2517 175.344 53.2517ZM175.344 55.124C177.756 55.124 179.712 53.1681 179.712 50.7553C179.712 48.3426 177.756 46.3867 175.344 46.3867C172.931 46.3867 170.975 48.3426 170.975 50.7553C170.975 53.1681 172.931 55.124 175.344 55.124Z" fill="url(#paint23_linear_1_5568)"/>
<path d="M169.209 164.431L179.731 152.831L181.316 154.268C182.854 155.663 183.774 157.612 183.875 159.685C183.976 161.759 183.25 163.788 181.855 165.325C180.46 166.863 178.511 167.784 176.438 167.885C174.364 167.986 172.335 167.259 170.797 165.864L169.213 164.427L169.209 164.431Z" fill="#65C8DE"/>
<defs>
<filter id="filter0_d_1_5568" x="0.71283" y="87.5764" width="80.0587" height="96.7073" filterUnits="userSpaceOnUse" color-interpolation-filters="sRGB">
<feFlood flood-opacity="0" result="BackgroundImageFix"/>
<feColorMatrix in="SourceAlpha" type="matrix" values="0 0 0 0 0 0 0 0 0 0 0 0 0 0 0 0 0 0 127 0" result="hardAlpha"/>
<feOffset dx="3" dy="7"/>
<feGaussianBlur stdDeviation="7.5"/>
<feComposite in2="hardAlpha" operator="out"/>
<feColorMatrix type="matrix" values="0 0 0 0 0.104618 0 0 0 0 0.465612 0 0 0 0 0.545833 0 0 0 0.15 0"/>
<feBlend mode="normal" in2="BackgroundImageFix" result="effect1_dropShadow_1_5568"/>
<feBlend mode="normal" in="SourceGraphic" in2="effect1_dropShadow_1_5568" result="shape"/>
</filter>
<filter id="filter1_d_1_5568" x="114.073" y="0" width="76.0587" height="53.3594" filterUnits="userSpaceOnUse" color-interpolation-filters="sRGB">
<feFlood flood-opacity="0" result="BackgroundImageFix"/>
<feColorMatrix in="SourceAlpha" type="matrix" values="0 0 0 0 0 0 0 0 0 0 0 0 0 0 0 0 0 0 127 0" result="hardAlpha"/>
<feOffset dx="6" dy="4"/>
<feGaussianBlur stdDeviation="6.5"/>
<feComposite in2="hardAlpha" operator="out"/>
<feColorMatrix type="matrix" values="0 0 0 0 0.104618 0 0 0 0 0.465612 0 0 0 0 0.545833 0 0 0 0.09 0"/>
<feBlend mode="normal" in2="BackgroundImageFix" result="effect1_dropShadow_1_5568"/>
<feBlend mode="normal" in="SourceGraphic" in2="effect1_dropShadow_1_5568" result="shape"/>
</filter>
<filter id="filter2_b_1_5568" x="63.3741" y="52.8483" width="107.755" height="107.755" filterUnits="userSpaceOnUse" color-interpolation-filters="sRGB">
<feFlood flood-opacity="0" result="BackgroundImageFix"/>
<feGaussianBlur in="BackgroundImageFix" stdDeviation="8.33757"/>
<feComposite in2="SourceAlpha" operator="in" result="effect1_backgroundBlur_1_5568"/>
<feBlend mode="normal" in="SourceGraphic" in2="effect1_backgroundBlur_1_5568" result="shape"/>
</filter>
<filter id="filter3_f_1_5568" x="71.4849" y="102.566" width="93.9933" height="49.4149" filterUnits="userSpaceOnUse" color-interpolation-filters="sRGB">
<feFlood flood-opacity="0" result="BackgroundImageFix"/>
<feBlend mode="normal" in="SourceGraphic" in2="BackgroundImageFix" result="shape"/>
<feGaussianBlur stdDeviation="10.422" result="effect1_foregroundBlur_1_5568"/>
</filter>
<linearGradient id="paint0_linear_1_5568" x1="94.565" y1="-12.3198" x2="96.24" y2="274.843" gradientUnits="userSpaceOnUse">
<stop stop-color="white" stop-opacity="0"/>
<stop offset="1" stop-color="#8EE2F4"/>
</linearGradient>
<linearGradient id="paint1_linear_1_5568" x1="38.3769" y1="35.6934" x2="149.588" y2="43.5352" gradientUnits="userSpaceOnUse">
<stop stop-color="#90E3F5"/>
<stop offset="1" stop-color="#65C8DE"/>
</linearGradient>
<linearGradient id="paint2_linear_1_5568" x1="35.1689" y1="117.32" x2="195.57" y2="120.171" gradientUnits="userSpaceOnUse">
<stop stop-color="white"/>
<stop offset="1" stop-color="#BCF3FF"/>
</linearGradient>
<linearGradient id="paint3_linear_1_5568" x1="51.5656" y1="59.2189" x2="137.826" y2="59.2189" gradientUnits="userSpaceOnUse">
<stop stop-color="#65C8DE"/>
<stop offset="1" stop-color="#D2F7FF"/>
</linearGradient>
<linearGradient id="paint4_linear_1_5568" x1="51.5656" y1="82.5272" x2="137.826" y2="82.5272" gradientUnits="userSpaceOnUse">
<stop stop-color="#65C8DE"/>
<stop offset="1" stop-color="#D2F7FF"/>
</linearGradient>
<linearGradient id="paint5_linear_1_5568" x1="51.5656" y1="105.836" x2="137.826" y2="105.836" gradientUnits="userSpaceOnUse">
<stop stop-color="#65C8DE"/>
<stop offset="1" stop-color="#D2F7FF"/>
</linearGradient>
<linearGradient id="paint6_linear_1_5568" x1="51.5658" y1="129.144" x2="137.826" y2="129.144" gradientUnits="userSpaceOnUse">
<stop stop-color="#65C8DE"/>
<stop offset="1" stop-color="#D2F7FF"/>
</linearGradient>
<linearGradient id="paint7_linear_1_5568" x1="11.2098" y1="145.599" x2="107.156" y2="153.479" gradientUnits="userSpaceOnUse">
<stop stop-color="white"/>
<stop offset="1" stop-color="#BCF3FF"/>
</linearGradient>
<linearGradient id="paint8_linear_1_5568" x1="119.57" y1="29.5161" x2="191.85" y2="31.607" gradientUnits="userSpaceOnUse">
<stop stop-color="white"/>
<stop offset="1" stop-color="#BCF3FF"/>
</linearGradient>
<linearGradient id="paint9_linear_1_5568" x1="58.5625" y1="127.093" x2="17.9276" y2="127.093" gradientUnits="userSpaceOnUse">
<stop stop-color="#D2F7FF"/>
<stop offset="1" stop-color="#65C8DE"/>
</linearGradient>
<linearGradient id="paint10_linear_1_5568" x1="58.5301" y1="152.864" x2="18.2444" y2="152.864" gradientUnits="userSpaceOnUse">
<stop stop-color="#D2F7FF"/>
<stop offset="1" stop-color="#65C8DE"/>
</linearGradient>
<linearGradient id="paint11_linear_1_5568" x1="58.5301" y1="139.319" x2="18.2444" y2="139.319" gradientUnits="userSpaceOnUse">
<stop stop-color="#D2F7FF"/>
<stop offset="1" stop-color="#65C8DE"/>
</linearGradient>
<linearGradient id="paint12_linear_1_5568" x1="48.2256" y1="113.548" x2="19.3535" y2="113.548" gradientUnits="userSpaceOnUse">
<stop offset="0.243799" stop-color="#D2F7FF"/>
<stop offset="1" stop-color="#6BCBE0"/>
</linearGradient>
<linearGradient id="paint13_linear_1_5568" x1="146.384" y1="143.749" x2="157.006" y2="132.099" gradientUnits="userSpaceOnUse">
<stop stop-color="#90E3F5"/>
<stop offset="1" stop-color="#65C8DE"/>
</linearGradient>
<linearGradient id="paint14_linear_1_5568" x1="73.2092" y1="83.0658" x2="161.672" y2="83.6402" gradientUnits="userSpaceOnUse">
<stop stop-color="#90E3F5"/>
<stop offset="1" stop-color="#65C8DE"/>
</linearGradient>
<linearGradient id="paint15_linear_1_5568" x1="117.251" y1="69.5234" x2="154.739" y2="166.8" gradientUnits="userSpaceOnUse">
<stop stop-color="white"/>
<stop offset="1" stop-color="#D2F7FF"/>
</linearGradient>
<linearGradient id="paint16_linear_1_5568" x1="98.2113" y1="89.1652" x2="138.608" y2="126.907" gradientUnits="userSpaceOnUse">
<stop stop-color="#FF698D"/>
<stop offset="1" stop-color="#FF3868"/>
</linearGradient>
<linearGradient id="paint17_linear_1_5568" x1="74.7007" y1="153.818" x2="104.854" y2="154.014" gradientUnits="userSpaceOnUse">
<stop stop-color="#90E3F5"/>
<stop offset="1" stop-color="#65C8DE"/>
</linearGradient>
<linearGradient id="paint18_linear_1_5568" x1="15.5305" y1="16.9425" x2="45.6836" y2="17.1383" gradientUnits="userSpaceOnUse">
<stop stop-color="#90E3F5"/>
<stop offset="1" stop-color="#65C8DE"/>
</linearGradient>
<linearGradient id="paint19_linear_1_5568" x1="87.5567" y1="12.0455" x2="96.3514" y2="12.1026" gradientUnits="userSpaceOnUse">
<stop stop-color="#90E3F5"/>
<stop offset="1" stop-color="#65C8DE"/>
</linearGradient>
<linearGradient id="paint20_linear_1_5568" x1="166.561" y1="89.9693" x2="175.609" y2="81.2524" gradientUnits="userSpaceOnUse">
<stop stop-color="#90E3F5"/>
<stop offset="1" stop-color="#65C8DE"/>
</linearGradient>
<linearGradient id="paint21_linear_1_5568" x1="18.8699" y1="71.9113" x2="27.5751" y2="80.9708" gradientUnits="userSpaceOnUse">
<stop stop-color="#90E3F5"/>
<stop offset="1" stop-color="#65C8DE"/>
</linearGradient>
<linearGradient id="paint22_linear_1_5568" x1="137.923" y1="158.172" x2="146.628" y2="167.231" gradientUnits="userSpaceOnUse">
<stop stop-color="#90E3F5"/>
<stop offset="1" stop-color="#65C8DE"/>
</linearGradient>
<linearGradient id="paint23_linear_1_5568" x1="170.965" y1="48.4032" x2="179.76" y2="48.4603" gradientUnits="userSpaceOnUse">
<stop stop-color="#90E3F5"/>
<stop offset="1" stop-color="#65C8DE"/>
</linearGradient>
</defs>
</svg>
