<svg width="21" height="21" viewBox="0 0 21 21" fill="none" xmlns="http://www.w3.org/2000/svg">
<path d="M10.0625 19.0312C5.11875 19.0312 1.09375 15.0063 1.09375 10.0625C1.09375 5.11875 5.11875 1.09375 10.0625 1.09375C15.0063 1.09375 19.0312 5.11875 19.0312 10.0625C19.0312 15.0063 15.0063 19.0312 10.0625 19.0312ZM10.0625 2.40625C5.83625 2.40625 2.40625 5.845 2.40625 10.0625C2.40625 14.28 5.83625 17.7188 10.0625 17.7188C14.2887 17.7188 17.7188 14.28 17.7188 10.0625C17.7188 5.845 14.2887 2.40625 10.0625 2.40625Z" fill="#292D32"/>
<path d="M19.25 19.9063C19.0838 19.9063 18.9175 19.845 18.7863 19.7138L17.0363 17.9638C16.7825 17.71 16.7825 17.29 17.0363 17.0363C17.29 16.7825 17.71 16.7825 17.9638 17.0363L19.7138 18.7863C19.9675 19.04 19.9675 19.46 19.7138 19.7138C19.5825 19.845 19.4163 19.9063 19.25 19.9063Z" fill="#292D32"/>
</svg>
