<svg width="20" height="20" viewBox="0 0 20 20" fill="none" xmlns="http://www.w3.org/2000/svg">
<path fill-rule="evenodd" clip-rule="evenodd" d="M11.3485 0.558456C10.9908 0.200877 10.5058 0 10 0C9.49423 0 9.00917 0.200877 8.65148 0.558456L6.83947 2.37047H4.27785C3.77198 2.37047 3.28683 2.57142 2.92913 2.92913C2.57142 3.28683 2.37047 3.77198 2.37047 4.27785V6.83947L0.558456 8.65148C0.200877 9.00917 0 9.49423 0 10C0 10.5058 0.200877 10.9908 0.558456 11.3485L2.37047 13.1605V15.7221C2.37047 16.228 2.57142 16.7132 2.92913 17.0709C3.28683 17.4286 3.77198 17.6295 4.27785 17.6295H6.83947L8.65148 19.4415C9.00917 19.7991 9.49423 20 10 20C10.5058 20 10.9908 19.7991 11.3485 19.4415L13.1605 17.6295H15.7221C16.228 17.6295 16.7132 17.4286 17.0709 17.0709C17.4286 16.7132 17.6295 16.228 17.6295 15.7221V13.1605L19.4415 11.3485C19.7991 10.9908 20 10.5058 20 10C20 9.49423 19.7991 9.00917 19.4415 8.65148L17.6295 6.83947V4.27785C17.6295 3.77198 17.4286 3.28683 17.0709 2.92913C16.7132 2.57142 16.228 2.37047 15.7221 2.37047H13.1605L11.3485 0.558456ZM10 1.90888L11.812 3.7209C12.1697 4.07769 12.6544 4.278 13.1596 4.27785H15.7221V6.83947C15.7221 7.09009 15.7714 7.33827 15.8673 7.56982C15.9632 7.80137 16.1038 8.01175 16.281 8.18894L18.093 10.001L16.281 11.812C15.9233 12.1696 15.7223 12.6547 15.7221 13.1605V15.7221H13.1605C12.9099 15.7221 12.6617 15.7714 12.4302 15.8673C12.1986 15.9632 11.9882 16.1038 11.8111 16.281L9.99905 18.093L8.18799 16.281C7.83037 15.9233 7.34529 15.7223 6.83947 15.7221H4.27785V13.1605C4.27792 12.9099 4.2286 12.6617 4.13271 12.4302C4.03682 12.1986 3.89623 11.9882 3.71899 11.8111L1.90698 10L3.71899 8.18799C4.07648 7.8306 4.27749 7.34592 4.27785 6.84042V4.27785H6.83947C7.34529 4.27774 7.83037 4.07672 8.18799 3.71899L10 1.90698V1.90888ZM8.09262 10C8.09262 9.49413 8.29357 9.00898 8.65128 8.65128C9.00898 8.29357 9.49413 8.09262 10 8.09262C10.5059 8.09262 10.991 8.29357 11.3487 8.65128C11.7064 9.00898 11.9074 9.49413 11.9074 10C11.9074 10.5059 11.7064 10.991 11.3487 11.3487C10.991 11.7064 10.5059 11.9074 10 11.9074C9.49413 11.9074 9.00898 11.7064 8.65128 11.3487C8.29357 10.991 8.09262 10.5059 8.09262 10ZM10 6.18523C8.98826 6.18523 8.01796 6.58715 7.30255 7.30255C6.58715 8.01796 6.18523 8.98826 6.18523 10C6.18523 11.0117 6.58715 11.982 7.30255 12.6974C8.01796 13.4129 8.98826 13.8148 10 13.8148C11.0117 13.8148 11.982 13.4129 12.6974 12.6974C13.4129 11.982 13.8148 11.0117 13.8148 10C13.8148 8.98826 13.4129 8.01796 12.6974 7.30255C11.982 6.58715 11.0117 6.18523 10 6.18523Z" fill="#BEBEBE"/>
</svg>
