<svg width="20" height="20" viewBox="0 0 20 20" fill="none" xmlns="http://www.w3.org/2000/svg">
<path fill-rule="evenodd" clip-rule="evenodd" d="M8.65145 0.557806C8.98905 0.220636 9.44076 0.0222399 9.91745 0.00175941C10.3941 -0.0187211 10.8612 0.140202 11.2265 0.447173L11.3486 0.55876L13.1606 2.3699H15.7223C16.2033 2.36999 16.6666 2.55185 17.0193 2.87904C17.3719 3.20623 17.5879 3.6546 17.624 4.13431L17.6297 4.27737V6.8391L19.4418 8.6512C19.7792 8.98886 19.9778 9.44077 19.9982 9.9177C20.0187 10.3946 19.8596 10.8619 19.5524 11.2272L19.4408 11.3484L17.6288 13.1605V15.7222C17.6289 16.2034 17.4472 16.6669 17.12 17.0198C16.7927 17.3727 16.3443 17.5888 15.8644 17.6249L15.7223 17.6297H13.1616L11.3495 19.4418C11.0119 19.7792 10.56 19.9778 10.083 19.9982C9.60612 20.0187 9.13886 19.8596 8.77352 19.5524L8.6524 19.4418L6.84034 17.6297H4.27772C3.79649 17.6298 3.333 17.4481 2.98014 17.1208C2.62728 16.7936 2.41115 16.3451 2.37506 15.8653L2.37029 15.7222V13.1605L0.55823 11.3484C0.2208 11.0107 0.0222402 10.5588 0.00175807 10.0819C-0.018724 9.60494 0.140361 9.13767 0.447599 8.77233L0.55823 8.6512L2.37029 6.8391V4.27737C2.37037 3.7963 2.55223 3.33304 2.87941 2.98037C3.2066 2.62771 3.65496 2.41171 4.13466 2.37563L4.27772 2.3699H6.83939L8.65145 0.557806ZM10 7.13858C9.24118 7.13858 8.51343 7.44002 7.97687 7.9766C7.4403 8.51318 7.13886 9.24094 7.13886 9.99978C7.13886 10.7586 7.4403 11.4864 7.97687 12.023C8.51343 12.5595 9.24118 12.861 10 12.861C10.7588 12.861 11.4866 12.5595 12.0231 12.023C12.5597 11.4864 12.8611 10.7586 12.8611 9.99978C12.8611 9.24094 12.5597 8.51318 12.0231 7.9766C11.4866 7.44002 10.7588 7.13858 10 7.13858Z" fill="#4B68FF"/>
</svg>
