<svg width="21" height="21" viewBox="0 0 21 21" fill="none" xmlns="http://www.w3.org/2000/svg">
<path d="M6.06669 0.95C3.24065 0.95 0.95 3.24082 0.95 6.06669V14.9333C0.95 17.7594 3.24082 20.05 6.06669 20.05H14.9333C17.7594 20.05 20.05 17.7592 20.05 14.9333V6.06669C20.05 3.24065 17.7592 0.95 14.9333 0.95H6.06669ZM6.3332 18.8944C5.40142 18.8944 4.8536 18.6274 4.68689 18.2255C4.52019 17.8236 4.71845 17.2479 5.37589 16.5905L13.6738 8.29254C13.7952 8.17116 13.8865 8.15006 13.9379 8.17067C13.9887 8.19103 14.0389 8.26784 14.0389 8.43881V14.0902C14.0389 14.4704 14.3451 14.7722 14.7222 14.7722C15.102 14.7722 15.4056 14.4673 15.4056 14.0911V6.27557C15.4056 5.89842 15.1006 5.59444 14.7244 5.59444H6.9089C6.53159 5.59444 6.22778 5.9006 6.22778 6.27778C6.22778 6.65764 6.53316 6.96111 6.90981 6.96111H12.5612C12.6451 6.96111 12.7087 6.97319 12.7534 6.99244C12.7977 7.01149 12.8209 7.03624 12.831 7.06153C12.8411 7.08698 12.8414 7.12162 12.8227 7.16718C12.8038 7.21303 12.7667 7.2669 12.7075 7.32616L4.40951 15.6241C3.75117 16.2825 3.17556 16.4801 2.7739 16.3129C2.37216 16.1457 2.10556 15.5974 2.10556 14.6668V6.27851C2.10556 3.97266 3.97177 2.10556 6.27377 2.10556H14.7262C17.0286 2.10556 18.8944 3.97172 18.8944 6.27377V14.7262C18.8944 17.0286 17.0262 18.8944 14.7215 18.8944H6.3332Z" fill="#BEBEBE" stroke="#BEBEBE" stroke-width="0.1"/>
</svg>
