<svg width="24" height="24" viewBox="0 0 24 24" fill="none" xmlns="http://www.w3.org/2000/svg">
<path d="M15.7731 16.3516L21.769 10.3489L21.845 10.2607C21.9576 10.1069 22.0118 9.91701 21.9978 9.7258C21.9839 9.53459 21.9026 9.35492 21.769 9.21977L15.7731 3.21983L15.6905 3.1479C15.2105 2.78147 14.5038 3.13433 14.5038 3.7844V6.67512L14.2038 6.69548C9.45322 7.07819 6.6706 10.1386 6.00661 15.6893C5.92127 16.4018 6.72393 16.8483 7.24392 16.376C9.15189 14.6416 11.1239 13.564 13.1705 13.1324C13.4985 13.0632 13.8278 13.0103 14.1598 12.9736L14.5038 12.9424V15.787L14.5105 15.8983C14.5905 16.5131 15.3225 16.8021 15.7731 16.3516ZM14.3011 8.04855L15.8371 7.94405V5.18498L20.4317 9.78298L15.8371 14.3837V11.4563L14.0292 11.6219H14.0185C11.7479 11.8703 9.60522 12.7958 7.58258 14.3389C7.97991 12.5217 8.65857 11.1551 9.55055 10.1766C10.6572 8.96191 12.2038 8.21955 14.3011 8.04855ZM5.33328 4.35712C4.44924 4.35712 3.60141 4.71458 2.9763 5.35087C2.35118 5.98715 2 6.85014 2 7.74998V18.6071C2 19.507 2.35118 20.37 2.9763 21.0063C3.60141 21.6425 4.44924 22 5.33328 22H15.9998C16.8838 22 17.7317 21.6425 18.3568 21.0063C18.9819 20.37 19.3331 19.507 19.3331 18.6071V17.25C19.3331 17.07 19.2628 16.8974 19.1378 16.7702C19.0128 16.6429 18.8432 16.5714 18.6664 16.5714C18.4896 16.5714 18.32 16.6429 18.195 16.7702C18.07 16.8974 17.9998 17.07 17.9998 17.25V18.6071C17.9998 19.147 17.789 19.6648 17.414 20.0466C17.0389 20.4284 16.5302 20.6429 15.9998 20.6429H5.33328C4.80286 20.6429 4.29416 20.4284 3.91909 20.0466C3.54402 19.6648 3.33331 19.147 3.33331 18.6071V7.74998C3.33331 7.21007 3.54402 6.69228 3.91909 6.31051C4.29416 5.92874 4.80286 5.71426 5.33328 5.71426H9.33322C9.51003 5.71426 9.6796 5.64277 9.80462 5.51551C9.92964 5.38826 9.99988 5.21566 9.99988 5.03569C9.99988 4.85572 9.92964 4.68313 9.80462 4.55587C9.6796 4.42861 9.51003 4.35712 9.33322 4.35712H5.33328Z" fill="black"/>
</svg>
