<svg width="18" height="18" viewBox="0 0 18 18" fill="none" xmlns="http://www.w3.org/2000/svg">
<path d="M4.34195 4.37508L2.13873 13.3403C2.11212 13.454 2.11505 13.5725 2.14725 13.6847C2.17945 13.7969 2.23985 13.899 2.32268 13.9813C2.40551 14.0635 2.50803 14.1232 2.62045 14.1546C2.73288 14.186 2.85147 14.1881 2.96494 14.1606L11.9243 11.9574C12.0322 11.9308 12.132 11.8783 12.215 11.8045C12.2981 11.7306 12.3619 11.6376 12.4009 11.5336L13.9087 7.52951C13.9537 7.52951 14.0005 7.52951 14.0455 7.52951C14.4896 7.52938 14.9238 7.39757 15.293 7.15074C15.6623 6.90392 15.9501 6.55316 16.12 6.14281C16.29 5.73246 16.3345 5.28093 16.2479 4.8453C16.1612 4.40967 15.9474 4.0095 15.6334 3.69537L12.5962 0.663992C12.2746 0.339491 11.8616 0.12095 11.4125 0.03762C10.9633 -0.0457102 10.4994 0.0101461 10.0828 0.197713C9.66627 0.38528 9.31694 0.695607 9.0816 1.08716C8.84626 1.47871 8.73613 1.93281 8.76596 2.38867L4.76189 3.89655C4.65832 3.93626 4.56597 4.00057 4.49281 4.08394C4.41965 4.16731 4.36787 4.26723 4.34195 4.37508ZM10.3871 1.64059C10.5522 1.47647 10.7755 1.38435 11.0082 1.38435C11.241 1.38435 11.4643 1.47647 11.6294 1.64059L14.6685 4.67002C14.8341 4.83501 14.9272 5.05899 14.9276 5.29268C14.928 5.52638 14.8355 5.75065 14.6705 5.91616C14.5055 6.08167 14.2815 6.17486 14.0478 6.17522C13.8141 6.17559 13.5899 6.08311 13.4244 5.91812L10.3852 2.87502C10.2204 2.70989 10.1279 2.48617 10.1279 2.25292C10.1279 2.01968 10.2204 1.79596 10.3852 1.63083L10.3871 1.64059ZM9.26207 3.66412C9.31171 3.72543 9.36452 3.78411 9.42028 3.8399L12.4575 6.87909C12.5133 6.93483 12.572 6.98764 12.6333 7.0373L11.2485 10.7152L5.01776 12.2485L7.33035 9.93391C7.66835 10.0786 8.04196 10.1188 8.40298 10.0491C8.76401 9.9795 9.09589 9.8033 9.35583 9.54327C9.59215 9.30746 9.75986 9.0118 9.841 8.68797C9.92213 8.36413 9.91363 8.02433 9.8164 7.70496C9.71917 7.38558 9.53688 7.09868 9.28906 6.87499C9.04124 6.6513 8.73723 6.49926 8.4096 6.43514C8.08197 6.37103 7.74307 6.39726 7.42921 6.51103C7.11535 6.6248 6.83836 6.82182 6.62792 7.08099C6.41747 7.34015 6.28151 7.65168 6.23459 7.98221C6.18766 8.31274 6.23156 8.64981 6.36156 8.9573L4.05092 11.2816L5.58419 5.05089L9.26207 3.66412ZM7.58231 8.24243C7.58221 8.13307 7.62002 8.02705 7.68932 7.94245C7.75862 7.85784 7.85511 7.79989 7.96235 7.77845C8.06959 7.75702 8.18095 7.77343 8.27744 7.8249C8.37393 7.87637 8.4496 7.95971 8.49153 8.06071C8.53347 8.16171 8.53908 8.27413 8.50742 8.37881C8.47576 8.48348 8.40878 8.57395 8.3179 8.63477C8.22702 8.6956 8.11785 8.72303 8.00901 8.7124C7.90016 8.70176 7.79838 8.6537 7.72099 8.57643C7.63262 8.48848 7.58274 8.36906 7.58231 8.24438V8.24243Z" fill="#BEBEBE"/>
<path d="M0.683744 17.2994H16.4091C16.5904 17.2994 16.7643 17.2274 16.8925 17.0992C17.0207 16.971 17.0927 16.7971 17.0927 16.6158C17.0927 16.4345 17.0207 16.2606 16.8925 16.1324C16.7643 16.0042 16.5904 15.9322 16.4091 15.9322H0.683744C0.502436 15.9322 0.328554 16.0042 0.20035 16.1324C0.0721463 16.2606 0.00012207 16.4345 0.00012207 16.6158C0.00012207 16.7971 0.0721463 16.971 0.20035 17.0992C0.328554 17.2274 0.502436 17.2994 0.683744 17.2994Z" fill="#BEBEBE"/>
</svg>
