<svg width="17" height="21" viewBox="0 0 17 21" fill="none" xmlns="http://www.w3.org/2000/svg">
<path d="M6 12H12H6ZM6 16H12H6Z" fill="#D8D9DB"/>
<path d="M6 12H12M6 16H12" stroke="#D8D9DB" stroke-linecap="round" stroke-linejoin="round"/>
<path d="M15.7445 5.31189L11.6961 1.2767C11.6608 1.19563 11.603 1.12645 11.5296 1.07739C11.4562 1.02833 11.3702 1.00147 11.282 1H3.76027C3.0282 1 2.32612 1.29152 1.80847 1.81043C1.29081 2.32934 1 3.03314 1 3.76699V17.233C1 17.9669 1.29081 18.6707 1.80847 19.1896C2.32612 19.7085 3.0282 20 3.76027 20H13.2372C13.9693 20 14.6714 19.7085 15.189 19.1896C15.7067 18.6707 15.9975 17.9669 15.9975 17.233V5.77306C16.0073 5.6795 15.9883 5.58517 15.9431 5.50274C15.8978 5.42031 15.8285 5.35372 15.7445 5.31189ZM11.7421 2.61408L14.3873 5.26578H11.7421V2.61408ZM15.0774 17.233C15.0774 17.7222 14.8835 18.1914 14.5384 18.5374C14.1933 18.8833 13.7253 19.0777 13.2372 19.0777H3.76027C3.27223 19.0777 2.80417 18.8833 2.45907 18.5374C2.11397 18.1914 1.92009 17.7222 1.92009 17.233V3.76699C1.92009 3.27776 2.11397 2.80856 2.45907 2.46262C2.80417 2.11668 3.27223 1.92233 3.76027 1.92233H10.822V5.49636C10.822 5.67982 10.8947 5.85577 11.0241 5.9855C11.1535 6.11523 11.329 6.18811 11.512 6.18811H15.0774V17.233Z" fill="#D8D9DB" stroke="#D8D9DB" stroke-width="0.25"/>
</svg>
