<svg width="18" height="18" viewBox="0 0 18 18" fill="none" xmlns="http://www.w3.org/2000/svg">
<path d="M14.7 14.7H10.5C10.2613 14.7 10.0324 14.7948 9.8636 14.9636C9.69482 15.1324 9.6 15.3613 9.6 15.6C9.6 15.8387 9.69482 16.0676 9.8636 16.2364C10.0324 16.4052 10.2613 16.5 10.5 16.5H14.7C15.1334 16.5 15.5625 16.4146 15.9629 16.2488C16.3632 16.083 16.727 15.8399 17.0335 15.5335C17.3399 15.227 17.583 14.8632 17.7488 14.4629C17.9146 14.0625 18 13.6334 18 13.2V3.3C18 2.86664 17.9146 2.43752 17.7488 2.03714C17.583 1.63677 17.3399 1.27298 17.0335 0.966547C16.727 0.660114 16.3632 0.417038 15.9629 0.251198C15.5625 0.0853573 15.1334 0 14.7 0H4.8C3.92479 0 3.08542 0.347677 2.46655 0.966547C1.84768 1.58542 1.5 2.42479 1.5 3.3V7.5C1.5 7.7387 1.59482 7.96761 1.7636 8.1364C1.93239 8.30518 2.16131 8.4 2.4 8.4C2.63869 8.4 2.86761 8.30518 3.0364 8.1364C3.20518 7.96761 3.3 7.7387 3.3 7.5V3.3C3.3 2.90218 3.45804 2.52064 3.73934 2.23934C4.02064 1.95804 4.40218 1.8 4.8 1.8H14.7C15.0978 1.8 15.4794 1.95804 15.7607 2.23934C16.042 2.52064 16.2 2.90218 16.2 3.3V13.2C16.2 13.5978 16.042 13.9794 15.7607 14.2607C15.4794 14.542 15.0978 14.7 14.7 14.7Z" fill="#BEBEBE"/>
<path d="M0.9 11.4C0.677984 11.4013 0.464291 11.4846 0.3 11.634C0.206221 11.7179 0.13107 11.8205 0.0793962 11.9352C0.0277229 12.0499 0.000675491 12.1742 0 12.3V15.9C0 16.4569 0.221249 16.9911 0.615076 17.3849C1.0089 17.7787 1.54305 18 2.1 18H5.7C5.82616 18.0006 5.95104 17.9747 6.06655 17.924C6.18205 17.8732 6.28559 17.7987 6.37046 17.7054C6.45532 17.612 6.51961 17.5019 6.55916 17.3821C6.5987 17.2623 6.61262 17.1355 6.6 17.01C6.56904 16.7816 6.45488 16.5726 6.2794 16.4231C6.10391 16.2737 5.87944 16.1942 5.649 16.2H3.072L11.4 7.87198V10.446C11.3935 10.6769 11.4726 10.9021 11.6221 11.0783C11.7717 11.2544 11.981 11.369 12.21 11.4C12.3355 11.4126 12.4623 11.3987 12.5821 11.3591C12.7019 11.3196 12.8121 11.2553 12.9054 11.1704C12.9988 11.0856 13.0732 10.982 13.124 10.8665C13.1747 10.751 13.2006 10.6261 13.2 10.5V6.89998C13.2 6.34302 12.9788 5.80888 12.5849 5.41505C12.1911 5.02123 11.657 4.79998 11.1 4.79998H7.551C7.32056 4.7942 7.09609 4.87365 6.9206 5.02312C6.74512 5.17259 6.63096 5.38155 6.6 5.60998C6.58738 5.73551 6.6013 5.86228 6.64084 5.98209C6.68039 6.10189 6.74468 6.21204 6.82954 6.30539C6.91441 6.39875 7.01795 6.47321 7.13345 6.52396C7.24896 6.57471 7.37384 6.60061 7.5 6.59998H10.128L1.8 14.928V12.351C1.80578 12.1205 1.72633 11.8961 1.57686 11.7206C1.42739 11.5451 1.21842 11.4309 0.99 11.4H0.9Z" fill="#BEBEBE"/>
</svg>
