<svg width="24" height="24" viewBox="0 0 24 24" fill="none" xmlns="http://www.w3.org/2000/svg">
<path d="M20 16.25V18.2857C19.9993 19.0054 19.7181 19.6953 19.2181 20.2042C18.7182 20.713 18.0403 20.9992 17.3333 21H10.4046C10.2278 21 10.0582 20.9285 9.9332 20.8013C9.80817 20.674 9.73793 20.5014 9.73793 20.3214C9.73793 20.1415 9.80817 19.9689 9.9332 19.8416C10.0582 19.7143 10.2278 19.6429 10.4046 19.6429H17.3333C17.6868 19.6424 18.0257 19.4993 18.2757 19.2449C18.5257 18.9905 18.6663 18.6455 18.6667 18.2857V16.9286H9.33333V18.2857C9.33333 19.0056 9.05238 19.696 8.55228 20.205C8.05219 20.714 7.37391 21 6.66667 21C5.95942 21 5.28115 20.714 4.78105 20.205C4.28095 19.696 4 19.0056 4 18.2857V2.67857C4 2.4986 4.07024 2.32601 4.19526 2.19875C4.32029 2.07149 4.48986 2 4.66667 2H17.3333C17.5101 2 17.6797 2.07149 17.8047 2.19875C17.9298 2.32601 18 2.4986 18 2.67857V5.39286C18 5.57283 17.9298 5.74542 17.8047 5.87268C17.6797 5.99994 17.5101 6.07143 17.3333 6.07143C17.1565 6.07143 16.987 5.99994 16.8619 5.87268C16.7369 5.74542 16.6667 5.57283 16.6667 5.39286V3.35714H5.33333V18.2857C5.33333 18.6457 5.47381 18.9908 5.72386 19.2454C5.97391 19.4999 6.31304 19.6429 6.66667 19.6429C7.02029 19.6429 7.35943 19.4999 7.60948 19.2454C7.85952 18.9908 8 18.6457 8 18.2857V16.25C8 16.07 8.07024 15.8974 8.19526 15.7702C8.32029 15.6429 8.48986 15.5714 8.66667 15.5714H16.6667V8.14358C16.6667 7.96361 16.7369 7.79102 16.8619 7.66376C16.987 7.5365 17.1565 7.46501 17.3333 7.46501C17.5101 7.46501 17.6797 7.5365 17.8047 7.66376C17.9298 7.79102 18 7.96361 18 8.14358V15.5714H19.3333C19.5101 15.5714 19.6797 15.6429 19.8047 15.7702C19.9298 15.8974 20 16.07 20 16.25ZM14.6667 4.71429H9.33333C9.15652 4.71429 8.98695 4.78578 8.86193 4.91303C8.7369 5.04029 8.66667 5.21289 8.66667 5.39286C8.66667 5.57283 8.7369 5.74542 8.86193 5.87268C8.98695 5.99994 9.15652 6.07143 9.33333 6.07143H14.6667C14.8435 6.07143 15.013 5.99994 15.1381 5.87268C15.2631 5.74542 15.3333 5.57283 15.3333 5.39286C15.3333 5.21289 15.2631 5.04029 15.1381 4.91303C15.013 4.78578 14.8435 4.71429 14.6667 4.71429ZM14.6667 7.42857H7.33333C7.15652 7.42857 6.98695 7.50006 6.86193 7.62732C6.7369 7.75458 6.66667 7.92717 6.66667 8.10714C6.66667 8.28711 6.7369 8.45971 6.86193 8.58697C6.98695 8.71422 7.15652 8.78571 7.33333 8.78571H14.6667C14.8435 8.78571 15.013 8.71422 15.1381 8.58697C15.2631 8.45971 15.3333 8.28711 15.3333 8.10714C15.3333 7.92717 15.2631 7.75458 15.1381 7.62732C15.013 7.50006 14.8435 7.42857 14.6667 7.42857ZM14.6667 10.1429H7.33333C7.15652 10.1429 6.98695 10.2143 6.86193 10.3416C6.7369 10.4689 6.66667 10.6415 6.66667 10.8214C6.66667 11.0014 6.7369 11.174 6.86193 11.3013C6.98695 11.4285 7.15652 11.5 7.33333 11.5H14.6667C14.8435 11.5 15.013 11.4285 15.1381 11.3013C15.2631 11.174 15.3333 11.0014 15.3333 10.8214C15.3333 10.6415 15.2631 10.4689 15.1381 10.3416C15.013 10.2143 14.8435 10.1429 14.6667 10.1429ZM14.6667 12.8571H7.33333C7.15652 12.8571 6.98695 12.9286 6.86193 13.0559C6.7369 13.1831 6.66667 13.3557 6.66667 13.5357C6.66667 13.7157 6.7369 13.8883 6.86193 14.0155C6.98695 14.1428 7.15652 14.2143 7.33333 14.2143H14.6667C14.8435 14.2143 15.013 14.1428 15.1381 14.0155C15.2631 13.8883 15.3333 13.7157 15.3333 13.5357C15.3333 13.3557 15.2631 13.1831 15.1381 13.0559C15.013 12.9286 14.8435 12.8571 14.6667 12.8571Z" fill="black"/>
</svg>
