<svg width="17" height="18" viewBox="0 0 17 18" fill="none" xmlns="http://www.w3.org/2000/svg">
<path d="M16.9949 11.3891C17.0305 10.4641 16.8794 9.54137 16.5505 8.6763C16.2215 7.81123 15.7217 7.02161 15.0808 6.35478C14.4399 5.68794 13.6712 5.15762 12.8208 4.79561C11.9704 4.43361 11.0558 4.24736 10.1318 4.24805H2.69351L5.2688 1.66799C5.37265 1.56422 5.45193 1.43844 5.50081 1.2999C5.54969 1.16136 5.56693 1.0136 5.55125 0.867508C5.53557 0.721412 5.48737 0.580701 5.41021 0.455743C5.33305 0.330784 5.22888 0.224762 5.10539 0.145486C4.9092 0.0259013 4.6778 -0.0221421 4.45033 0.00947699C4.22285 0.0410961 4.01325 0.150438 3.85696 0.319018L0.748963 3.43278C0.269395 3.91352 0 4.56538 0 5.24505C0 5.92472 0.269395 6.57657 0.748963 7.05731L3.88311 10.1973C3.97632 10.2928 4.08843 10.3678 4.21224 10.4174C4.33605 10.467 4.46884 10.4902 4.6021 10.4854C4.73528 10.4815 4.86628 10.4505 4.98709 10.3942C5.10789 10.3379 5.21598 10.2575 5.30475 10.158C5.47507 9.95664 5.56215 9.69771 5.54818 9.43416C5.5342 9.17062 5.42023 8.92238 5.22958 8.74025L2.69351 6.21257H9.9978C11.275 6.1924 12.5109 6.66592 13.4488 7.53478C14.3866 8.40364 14.9543 9.60105 15.034 10.8783C15.0673 11.5436 14.9651 12.2088 14.7336 12.8333C14.5022 13.4578 14.1464 14.0286 13.6878 14.511C13.2292 14.9934 12.6775 15.3772 12.0662 15.6393C11.4549 15.9013 10.7967 16.036 10.1318 16.0352H5.5564C5.41896 16.0345 5.28292 16.0627 5.15709 16.1181C5.03126 16.1735 4.91846 16.2548 4.82601 16.3567C4.73356 16.4586 4.66353 16.5788 4.62045 16.7095C4.57737 16.8403 4.56221 16.9786 4.57596 17.1156C4.60968 17.3649 4.73404 17.593 4.92522 17.7561C5.11639 17.9193 5.36092 18.006 5.61196 17.9997H9.95532C13.6973 17.9997 16.8511 15.0333 16.9949 11.3891Z" fill="#BEBEBE"/>
</svg>
