<svg width="16" height="17" viewBox="0 0 16 17" fill="none" xmlns="http://www.w3.org/2000/svg">
<path fill-rule="evenodd" clip-rule="evenodd" d="M6.60388 0.0353082C6.47718 0.0897273 6.44987 0.145179 6.24272 0.768697C6.02036 1.43799 5.91037 1.65837 5.67324 1.90982C5.42865 2.16922 5.20884 2.29183 4.59368 2.51204C4.00339 2.72331 3.86683 2.82496 3.86683 3.05305C3.86683 3.26557 4.00683 3.36352 4.62074 3.58046C5.23347 3.79698 5.50865 3.96269 5.75166 4.26137C5.955 4.51131 6.05561 4.73406 6.25818 5.38258C6.37421 5.75417 6.4575 5.95193 6.51629 5.9956C6.63621 6.08465 6.8815 6.07819 6.96203 5.98381C6.99781 5.94191 7.11757 5.63019 7.22817 5.29107C7.58757 4.18914 7.85225 3.9201 8.95271 3.53831C9.48661 3.35307 9.62775 3.24698 9.62775 3.0309C9.62775 2.79076 9.54345 2.72477 8.98886 2.53076C8.36485 2.31244 8.07117 2.15481 7.82783 1.90758C7.56311 1.63863 7.45941 1.44117 7.25851 0.823589C7.02089 0.0932549 7.03724 0.128918 6.90665 0.057291C6.77889 -0.0127871 6.72485 -0.0167019 6.60388 0.0353082ZM12.5634 4.80733C12.451 4.88158 12.4134 4.96404 12.2437 5.50802C11.9886 6.32594 11.8931 6.53235 11.6311 6.83253C11.3116 7.19841 11.0917 7.32828 10.3292 7.60137C9.68001 7.83389 9.64443 7.85251 9.57071 7.99848C9.48345 8.17133 9.50215 8.33592 9.62374 8.46485C9.66504 8.50864 9.96124 8.63636 10.282 8.74869C10.9759 8.99179 11.2505 9.13715 11.5059 9.39664C11.831 9.72694 11.9638 9.98501 12.2075 10.7605C12.4546 11.5465 12.5072 11.6267 12.7761 11.6267C13.0048 11.6267 13.0933 11.4911 13.3036 10.8184C13.5518 10.0241 13.6864 9.74793 13.9656 9.45928C14.2642 9.15053 14.494 9.02319 15.2148 8.76719C15.5441 8.65017 15.8503 8.51445 15.9027 8.46222C16.0254 8.34001 16.0337 8.05359 15.9184 7.92233C15.8718 7.86942 15.6012 7.7491 15.2591 7.62929C14.5338 7.37526 14.2531 7.22087 13.9693 6.91986C13.6861 6.61959 13.5397 6.32112 13.3029 5.56059C13.1834 5.17699 13.08 4.91999 13.0221 4.86222C12.8869 4.72757 12.7152 4.70701 12.5634 4.80733ZM4.04181 8.04438C3.97069 8.06563 3.87604 8.13214 3.83149 8.19219C3.78695 8.25225 3.63745 8.66338 3.49931 9.10583C3.16826 10.1662 3.03981 10.4256 2.63135 10.8587C2.22318 11.2915 1.9781 11.428 0.981904 11.7778C0.473523 11.9562 0.198215 12.0752 0.139105 12.1419C-0.046908 12.3519 -0.0462993 12.6746 0.140525 12.8855C0.20284 12.9558 0.476322 13.0709 1.04791 13.2675C1.98171 13.5886 2.26302 13.7431 2.65079 14.1476C3.04038 14.554 3.18026 14.8341 3.50032 15.8486C3.67181 16.3922 3.81676 16.7798 3.87186 16.842C4.05532 17.0491 4.38073 17.0532 4.58374 16.8509C4.65056 16.7843 4.75916 16.4945 4.9468 15.882C5.23046 14.9559 5.3699 14.6566 5.70542 14.2531C6.05071 13.8378 6.40005 13.6361 7.3771 13.2879C8.12038 13.023 8.26351 12.9579 8.35394 12.844C8.44611 12.7278 8.45759 12.6808 8.44206 12.4823C8.41394 12.1228 8.3524 12.0786 7.45962 11.7764C7.03436 11.6325 6.56732 11.4488 6.42172 11.3683C5.92875 11.0955 5.50545 10.6469 5.26349 10.1405C5.21071 10.0301 5.06461 9.60403 4.93881 9.19368C4.813 8.78332 4.68439 8.38866 4.65295 8.31665C4.55692 8.09669 4.27991 7.97331 4.04181 8.04438Z" fill="white"/>
</svg>
