<svg width="20" height="21" viewBox="0 0 20 21" fill="none" xmlns="http://www.w3.org/2000/svg">
<path d="M13.1311 20.3058H6.7484C5.86334 20.3048 5.01482 19.9528 4.38899 19.327C3.76316 18.7011 3.41113 17.8526 3.41016 16.9675V4.33824C3.41113 3.45319 3.76316 2.60466 4.38899 1.97883C5.01482 1.353 5.86334 1.00098 6.7484 1H13.1311C14.0162 1.00088 14.8648 1.35286 15.4907 1.9787C16.1166 2.60454 16.4687 3.45312 16.4697 4.33824V16.9675C16.4687 17.8527 16.1166 18.7012 15.4907 19.3271C14.8648 19.9529 14.0162 20.3049 13.1311 20.3058ZM6.7484 2.10881C6.15733 2.10949 5.59066 2.3446 5.17271 2.76255C4.75475 3.1805 4.51965 3.74717 4.51896 4.33824V16.9675C4.51965 17.5586 4.75475 18.1253 5.17271 18.5432C5.59066 18.9612 6.15733 19.1963 6.7484 19.197H13.1311C13.7222 19.1964 14.289 18.9613 14.707 18.5434C15.125 18.1254 15.3602 17.5587 15.3609 16.9675V4.33824C15.3602 3.74711 15.125 3.18038 14.707 2.76242C14.289 2.34446 13.7222 2.10939 13.1311 2.10881H6.7484Z" fill="black" stroke="black" stroke-width="0.3"/>
<path d="M1.5544 15.8244C1.40737 15.8244 1.26635 15.766 1.16238 15.662C1.05841 15.558 1 15.417 1 15.27V6.03585C1 5.88881 1.05841 5.7478 1.16238 5.64383C1.26635 5.53986 1.40737 5.48145 1.5544 5.48145C1.70144 5.48145 1.84245 5.53986 1.94643 5.64383C2.0504 5.7478 2.10881 5.88881 2.10881 6.03585V15.27C2.10881 15.417 2.0504 15.558 1.94643 15.662C1.84245 15.766 1.70144 15.8244 1.5544 15.8244Z" fill="black" stroke="black" stroke-width="0.3"/>
<path d="M18.3254 15.8244C18.1784 15.8244 18.0373 15.766 17.9334 15.662C17.8294 15.558 17.771 15.417 17.771 15.27V6.03585C17.771 5.88881 17.8294 5.7478 17.9334 5.64383C18.0373 5.53986 18.1784 5.48145 18.3254 5.48145C18.4724 5.48145 18.6134 5.53986 18.7174 5.64383C18.8214 5.7478 18.8798 5.88881 18.8798 6.03585V15.27C18.8798 15.417 18.8214 15.558 18.7174 15.662C18.6134 15.766 18.4724 15.8244 18.3254 15.8244Z" fill="black" stroke="black" stroke-width="0.3"/>
</svg>
